<svg width="22" height="19" viewBox="0 0 22 19" fill="none" xmlns="http://www.w3.org/2000/svg">
    <path d="M17.85 9.0418C20.0965 9.0418 22 7.09972 22 4.7709C22 2.42527 20.1211 0.5 17.85 0.5C15.5707 0.5 13.7 2.42527 13.7 4.7709C13.7 7.11653 15.5707 9.0418 17.85 9.0418ZM6.64166 14.4141H16.1753C16.4939 14.4141 16.7716 14.145 16.7716 13.7835C16.7716 13.422 16.4939 13.153 16.1753 13.153H6.78054C6.31489 13.153 6.03713 12.8167 5.95544 12.3038L5.82473 11.4211H16.1916C17.0412 11.4211 17.5967 11.0427 17.8827 10.3702L17.948 10.1936C14.9254 10.1852 12.5726 7.78912 12.5726 4.7709C12.5726 4.51868 12.5889 4.26646 12.6216 4.01425H4.77906L4.61567 2.94652C4.52581 2.29916 4.30524 1.97128 3.47196 1.97128H0.60453C0.277757 1.97128 0 2.26553 0 2.60182C0 2.94652 0.277757 3.24078 0.60453 3.24078H3.36576L4.67286 12.472C4.84441 13.6658 5.45711 14.4141 6.64166 14.4141ZM15.2521 4.7709C15.2521 4.45983 15.4482 4.25806 15.7505 4.25806H17.3435V2.61023C17.3435 2.30757 17.5477 2.09738 17.85 2.09738C18.1522 2.09738 18.3483 2.30757 18.3483 2.61023V4.25806H19.9413C20.2436 4.25806 20.4478 4.45983 20.4478 4.7709C20.4478 5.08197 20.2436 5.28375 19.9413 5.28375H18.3483V6.93157C18.3483 7.23424 18.1522 7.44442 17.85 7.44442C17.5477 7.44442 17.3435 7.23424 17.3435 6.93157V5.28375H15.7505C15.4482 5.28375 15.2521 5.08197 15.2521 4.7709ZM5.95544 17.138C5.95544 17.9031 6.54363 18.5 7.28704 18.5C8.02228 18.5 8.61047 17.9031 8.61047 17.138C8.61047 16.3814 8.02228 15.776 7.28704 15.776C6.54363 15.776 5.95544 16.3814 5.95544 17.138ZM13.5938 17.138C13.5938 17.9031 14.1901 18.5 14.9254 18.5C15.6688 18.5 16.257 17.9031 16.257 17.138C16.257 16.3814 15.6688 15.776 14.9254 15.776C14.1901 15.776 13.5938 16.3814 13.5938 17.138Z" fill="white"/>
    </svg>
    