<svg width="20" height="21" viewBox="0 0 20 21" fill="none" xmlns="http://www.w3.org/2000/svg">
<path d="M10 20.5C15.4706 20.5 20 15.9608 20 10.5C20 5.02941 15.4608 0.5 9.9902 0.5C4.52941 0.5 0 5.02941 0 10.5C0 15.9608 4.53922 20.5 10 20.5ZM5.27451 10.5098C5.27451 10 5.62745 9.64706 6.14706 9.64706H9.13726V6.64706C9.13726 6.13726 9.48039 5.77451 9.98039 5.77451C10.4902 5.77451 10.8431 6.13726 10.8431 6.64706V9.64706H13.8529C14.3529 9.64706 14.7059 10 14.7059 10.5098C14.7059 11.0098 14.3529 11.3431 13.8529 11.3431H10.8431V14.3529C10.8431 14.8529 10.4902 15.2157 9.98039 15.2157C9.48039 15.2157 9.13726 14.8529 9.13726 14.3529V11.3431H6.14706C5.63726 11.3431 5.27451 11.0098 5.27451 10.5098Z" fill="#1BBFB4"/>
</svg>
