<svg width="10" height="10" viewBox="0 0 10 10" fill="none" xmlns="http://www.w3.org/2000/svg">
<path fill-rule="evenodd" clip-rule="evenodd" d="M5.00001 1C5.34389 1 5.62808 1.25574 5.67306 1.58754L5.67929 1.67978V4.32025H8.32083C8.69595 4.32025 9 4.62455 9 4.99997C9 5.34421 8.74453 5.62862 8.41293 5.67364L8.32083 5.67978H5.67929V8.32029C5.67929 8.69571 5.37514 9 5.00001 9C4.65614 9 4.37195 8.74433 4.32697 8.41246L4.32074 8.32029V5.67978H1.67925C1.30411 5.67978 1 5.37548 1 4.99997C1 4.65582 1.25554 4.37141 1.58708 4.32639L1.67925 4.32025H4.32074V1.67978C4.32074 1.30435 4.62489 1 5.00001 1Z" fill="#1BBFB4" stroke="#1BBFB4"/>
</svg>
