<svg width="56" height="57" viewBox="0 0 56 57" fill="none" xmlns="http://www.w3.org/2000/svg">
<rect opacity="0.1" y="0.525635" width="56" height="56" rx="15" fill="#50B5FF"/>
<path fill-rule="evenodd" clip-rule="evenodd" d="M32.9394 19.5256C34.2804 19.5256 35.5704 20.0556 36.5194 21.0066C37.4694 21.9556 38.0004 23.2356 38.0004 24.5756V32.4756C38.0004 35.2656 35.7304 37.5256 32.9394 37.5256H23.0604C20.2694 37.5256 18.0004 35.2656 18.0004 32.4756V24.5756C18.0004 21.7856 20.2594 19.5256 23.0604 19.5256H32.9394ZM34.5304 26.0656L34.6104 25.9856C34.8494 25.6956 34.8494 25.2756 34.5994 24.9856C34.4604 24.8366 34.2694 24.7456 34.0704 24.7256C33.8604 24.7146 33.6604 24.7856 33.5094 24.9256L29.0004 28.5256C28.4204 29.0066 27.5894 29.0066 27.0004 28.5256L22.5004 24.9256C22.1894 24.6956 21.7594 24.7256 21.5004 24.9956C21.2304 25.2656 21.2004 25.6956 21.4294 25.9956L21.5604 26.1256L26.1104 29.6756C26.6704 30.1156 27.3494 30.3556 28.0604 30.3556C28.7694 30.3556 29.4604 30.1156 30.0194 29.6756L34.5304 26.0656Z" fill="#50B5FF"/>
</svg>
