<svg width="1440" height="410" viewBox="0 0 1440 410" fill="none" xmlns="http://www.w3.org/2000/svg">
<rect width="1440" height="410" fill="#223B40"/>
<mask id="mask0" mask-type="alpha" maskUnits="userSpaceOnUse" x="0" y="0" width="1440" height="410">
<rect width="1440" height="410" fill="#223B40"/>
</mask>
<g mask="url(#mask0)">
<g opacity="0.3">
<path opacity="0.05" fill-rule="evenodd" clip-rule="evenodd" d="M-162 50.8462C-162 50.8462 -31.7831 23.9918 55.5981 102.475C142.979 180.957 117.167 226.986 167.304 257.785C217.442 288.583 291.434 258.894 402.208 300.14C512.982 341.387 493.223 430.427 566.101 457.168C638.979 483.908 678.43 419.904 783.762 440.14C889.094 460.376 898.739 582.446 936.918 595.959C975.097 609.473 1023.86 541.778 1109.71 559.883C1195.57 577.988 1212.06 702.376 1212.06 702.376H-162V50.8462Z" fill="url(#paint0_linear)"/>
<path opacity="0.2" fill-rule="evenodd" clip-rule="evenodd" d="M-782 -229.055C-782 -229.055 -593.027 -268.065 -466.217 -154.058C-339.408 -40.0517 -348.906 -50 -272.305 -50C-195.703 -50 -54.5787 -78.7429 71.7052 32C197.989 142.743 168.871 322.336 274.634 361.18C380.396 400.024 439.737 300 590.508 336.445C741.279 372.89 757.365 543.163 812.771 562.792C868.177 582.422 938.937 484.087 1063.53 510.387C1188.12 536.687 1212.06 717.376 1212.06 717.376H-782V-229.055Z" stroke="white" stroke-linecap="round" stroke-linejoin="round" stroke-dasharray="5 5"/>
<path opacity="0.1" fill-rule="evenodd" clip-rule="evenodd" d="M-387 265.343C-387 265.343 -309.201 239.329 -247.194 285.745C-185.187 332.162 -190.898 371.516 -155.32 389.73C-119.741 407.945 -68.0686 369.294 11.3494 398.848C90.7675 428.403 77.9583 489.835 129.674 505.649C181.39 521.464 210.587 471.951 284.131 495.579C357.675 519.207 365.72 579.741 392.813 587.733C419.906 595.725 454.506 555.69 515.43 566.397C576.354 577.105 588.056 650.67 588.056 650.67H-387V265.343Z" fill="url(#paint1_linear)"/>
<path opacity="0.2" fill-rule="evenodd" clip-rule="evenodd" d="M-335 252.231C-335 252.231 -233.105 218.176 -151.893 278.94C-70.6799 339.705 -78.1603 391.224 -31.5622 415.069C15.036 438.914 96.5176 371 191.658 415.069C286.799 459.138 273.968 546.117 341.701 566.821C409.435 587.524 447.675 522.706 543.997 553.637C640.32 584.569 650.857 663.816 686.341 674.278C721.825 684.741 767.142 632.329 846.936 646.347C926.73 660.364 942.056 756.67 942.056 756.67H-335V252.231Z" stroke="white" stroke-linecap="round" stroke-linejoin="round" stroke-dasharray="5 5"/>
<path opacity="0.05" fill-rule="evenodd" clip-rule="evenodd" d="M229.056 140C220.772 140 214.056 133.284 214.056 125C214.056 116.716 220.772 110 229.056 110C237.34 110 244.056 116.716 244.056 125C244.056 133.284 237.34 140 229.056 140Z" fill="white"/>
<path opacity="0.05" fill-rule="evenodd" clip-rule="evenodd" d="M195.056 74C192.294 74 190.056 71.7614 190.056 69C190.056 66.2386 192.294 64 195.056 64C197.817 64 200.056 66.2386 200.056 69C200.056 71.7614 197.817 74 195.056 74Z" fill="white"/>
<path opacity="0.05" fill-rule="evenodd" clip-rule="evenodd" d="M410.056 373C407.294 373 405.056 370.761 405.056 368C405.056 365.239 407.294 363 410.056 363C412.817 363 415.056 365.239 415.056 368C415.056 370.761 412.817 373 410.056 373Z" fill="white"/>
<path opacity="0.05" fill-rule="evenodd" clip-rule="evenodd" d="M436.056 430C427.772 430 421.056 423.284 421.056 415C421.056 406.716 427.772 400 436.056 400C444.34 400 451.056 406.716 451.056 415C451.056 423.284 444.34 430 436.056 430Z" fill="white"/>
<path opacity="0.05" fill-rule="evenodd" clip-rule="evenodd" d="M919.056 430C910.772 430 904.056 423.284 904.056 415C904.056 406.716 910.772 400 919.056 400C927.34 400 934.056 406.716 934.056 415C934.056 423.284 927.34 430 919.056 430Z" fill="white"/>
</g>
<g opacity="0.5">
<path opacity="0.05" fill-rule="evenodd" clip-rule="evenodd" d="M1520.06 325.824C1520.06 325.824 1389.84 352.678 1302.46 274.195C1215.08 195.712 1240.89 149.684 1190.75 118.885C1140.61 88.0869 1066.62 117.776 955.848 76.5295C845.074 35.2826 864.833 -53.7575 791.955 -80.498C719.077 -107.238 679.625 -43.2345 574.294 -63.4705C468.962 -83.7065 459.317 -205.776 421.138 -219.289C382.959 -232.803 334.199 -165.108 248.345 -183.213C162.49 -201.318 146 -325.706 146 -325.706H1520.06V325.824Z" fill="url(#paint2_linear)"/>
<path opacity="0.2" fill-rule="evenodd" clip-rule="evenodd" d="M2140.06 605.725C2140.06 605.725 1951.08 644.734 1824.27 530.728C1697.46 416.722 1706.96 426.67 1630.36 426.67C1553.76 426.67 1412.63 455.413 1286.35 344.67C1160.07 233.927 1189.18 54.3343 1083.42 15.4902C977.66 -23.3538 918.318 76.6699 767.548 40.2249C616.777 3.77979 600.691 -166.493 545.285 -186.122C489.879 -205.752 419.118 -107.417 294.525 -133.717C169.931 -160.017 146 -340.706 146 -340.706H2140.06V605.725Z" stroke="white" stroke-linecap="round" stroke-linejoin="round" stroke-dasharray="5 5"/>
<path opacity="0.1" fill-rule="evenodd" clip-rule="evenodd" d="M1745.06 111.327C1745.06 111.327 1667.26 137.341 1605.25 90.9245C1543.24 44.5083 1548.95 5.15422 1513.38 -13.0605C1477.8 -31.2752 1426.12 7.37573 1346.71 -22.1786C1267.29 -51.7329 1280.1 -113.165 1228.38 -128.979C1176.67 -144.794 1147.47 -95.2812 1073.93 -118.909C1000.38 -142.537 992.336 -203.071 965.243 -211.063C938.15 -219.055 903.55 -179.02 842.626 -189.727C781.702 -200.435 770 -274 770 -274H1745.06V111.327Z" fill="url(#paint3_linear)"/>
<path opacity="0.2" fill-rule="evenodd" clip-rule="evenodd" d="M1693.06 124.439C1693.06 124.439 1591.16 158.494 1509.95 97.7297C1428.74 36.9653 1436.22 -14.5539 1389.62 -38.3991C1343.02 -62.2444 1261.54 5.66991 1166.4 -38.3991C1071.26 -82.4682 1084.09 -169.447 1016.35 -190.151C948.621 -210.854 910.381 -146.036 814.059 -176.968C717.736 -207.899 707.199 -287.146 671.715 -297.608C636.231 -308.071 590.914 -255.659 511.12 -269.677C431.326 -283.695 416 -380 416 -380H1693.06V124.439Z" stroke="white" stroke-linecap="round" stroke-linejoin="round" stroke-dasharray="5 5"/>
<path opacity="0.05" fill-rule="evenodd" clip-rule="evenodd" d="M1129 236.67C1137.28 236.67 1144 243.386 1144 251.67C1144 259.954 1137.28 266.67 1129 266.67C1120.72 266.67 1114 259.954 1114 251.67C1114 243.386 1120.72 236.67 1129 236.67Z" fill="white"/>
<path opacity="0.05" fill-rule="evenodd" clip-rule="evenodd" d="M1433 241.67C1435.76 241.67 1438 243.908 1438 246.67C1438 249.431 1435.76 251.67 1433 251.67C1430.24 251.67 1428 249.431 1428 246.67C1428 243.908 1430.24 241.67 1433 241.67Z" fill="white"/>
<path opacity="0.05" fill-rule="evenodd" clip-rule="evenodd" d="M1163 302.67C1165.76 302.67 1168 304.908 1168 307.67C1168 310.431 1165.76 312.67 1163 312.67C1160.24 312.67 1158 310.431 1158 307.67C1158 304.908 1160.24 302.67 1163 302.67Z" fill="white"/>
<path opacity="0.05" fill-rule="evenodd" clip-rule="evenodd" d="M948 3.66992C950.761 3.66992 953 5.9085 953 8.66992C953 11.4313 950.761 13.6699 948 13.6699C945.239 13.6699 943 11.4313 943 8.66992C943 5.9085 945.239 3.66992 948 3.66992Z" fill="white"/>
<path opacity="0.05" fill-rule="evenodd" clip-rule="evenodd" d="M139 409.67C141.761 409.67 144 411.908 144 414.67C144 417.431 141.761 419.67 139 419.67C136.239 419.67 134 417.431 134 414.67C134 411.908 136.239 409.67 139 409.67Z" fill="white"/>
</g>
</g>
<defs>
<linearGradient id="paint0_linear" x1="525.028" y1="1031.56" x2="11.912" y2="-39.3295" gradientUnits="userSpaceOnUse">
<stop stop-color="white" stop-opacity="0.01"/>
<stop offset="1" stop-color="white"/>
</linearGradient>
<linearGradient id="paint1_linear" x1="100.528" y1="848.005" x2="-173.994" y2="169.782" gradientUnits="userSpaceOnUse">
<stop stop-color="white" stop-opacity="0.01"/>
<stop offset="1" stop-color="white"/>
</linearGradient>
<linearGradient id="paint2_linear" x1="833.028" y1="-654.894" x2="1346.14" y2="415.999" gradientUnits="userSpaceOnUse">
<stop stop-color="white" stop-opacity="0.01"/>
<stop offset="1" stop-color="white"/>
</linearGradient>
<linearGradient id="paint3_linear" x1="1257.53" y1="-471.335" x2="1532.05" y2="206.888" gradientUnits="userSpaceOnUse">
<stop stop-color="white" stop-opacity="0.01"/>
<stop offset="1" stop-color="white"/>
</linearGradient>
</defs>
</svg>
