<svg width="29" height="27" viewBox="0 0 29 27" fill="none" xmlns="http://www.w3.org/2000/svg">
<path d="M6.02788 23.0133C6.85723 23.0133 7.5367 23.7073 7.5367 24.5645C7.5367 25.4115 6.85723 26.1055 6.02788 26.1055C5.18853 26.1055 4.50906 25.4115 4.50906 24.5645C4.50906 23.7073 5.18853 23.0133 6.02788 23.0133ZM17.2691 23.0133C18.0985 23.0133 18.7779 23.7073 18.7779 24.5645C18.7779 25.4115 18.0985 26.1055 17.2691 26.1055C16.4298 26.1055 15.7503 25.4115 15.7503 24.5645C15.7503 23.7073 16.4298 23.0133 17.2691 23.0133ZM1.37979 6.10559L1.48162 6.11421L3.86476 6.48057C4.2045 6.54282 4.4543 6.82754 4.48428 7.17452L4.67413 9.46046C4.70411 9.78804 4.9639 10.033 5.28366 10.033H18.7781C19.3877 10.033 19.7874 10.2473 20.187 10.7167C20.5867 11.1861 20.6567 11.8597 20.5667 12.471L19.6175 19.1655C19.4376 20.4524 18.3585 21.4004 17.0895 21.4004H6.18795C4.85899 21.4004 3.75984 20.3605 3.64993 19.0134L2.73065 7.88887L1.22182 7.62354C0.822133 7.5521 0.542351 7.15411 0.612296 6.7459C0.682242 6.32851 1.07194 6.05196 1.48162 6.11421L1.37979 6.10559ZM15.4907 13.8078H12.7229C12.3032 13.8078 11.9734 14.1446 11.9734 14.5732C11.9734 14.9916 12.3032 15.3386 12.7229 15.3386H15.4907C15.9104 15.3386 16.2401 14.9916 16.2401 14.5732C16.2401 14.1446 15.9104 13.8078 15.4907 13.8078Z" fill="#C3CBDE"/>
<path fill-rule="evenodd" clip-rule="evenodd" d="M20.9329 13.7721C24.4307 13.7721 27.2663 10.9366 27.2663 7.4388C27.2663 3.941 24.4307 1.10547 20.9329 1.10547C17.4351 1.10547 14.5996 3.941 14.5996 7.4388C14.5996 10.9366 17.4351 13.7721 20.9329 13.7721Z" fill="#1BBFB4" stroke="white" stroke-width="2"/>
</svg>
