<svg width="41" height="41" viewBox="0 0 41 41" fill="none" xmlns="http://www.w3.org/2000/svg">
<path d="M20.1953 40.3906C31.2695 40.3906 40.4102 31.25 40.4102 20.1953C40.4102 9.14062 31.25 0 20.1758 0C9.12109 0 0 9.14062 0 20.1953C0 31.25 9.14062 40.3906 20.1953 40.3906ZM13.5352 28.7109C12.5 28.7109 11.6797 27.8906 11.6797 26.8359C11.6797 26.3672 11.875 25.8984 12.2461 25.5469L17.5586 20.2148L12.2461 14.9023C11.875 14.5508 11.6797 14.082 11.6797 13.6133C11.6797 12.5586 12.5 11.7578 13.5352 11.7578C14.082 11.7578 14.5117 11.9336 14.8633 12.2852L20.1953 17.5977L25.5469 12.2656C25.9375 11.8945 26.3477 11.7188 26.875 11.7188C27.9102 11.7188 28.7305 12.5391 28.7305 13.5742C28.7305 14.0625 28.5352 14.4922 28.1641 14.8828L22.8516 20.2148L28.1641 25.5273C28.5156 25.8984 28.7109 26.3477 28.7109 26.8359C28.7109 27.8906 27.8906 28.7109 26.8359 28.7109C26.3086 28.7109 25.8594 28.5156 25.4883 28.1641L20.1953 22.8711L14.9023 28.1641C14.5508 28.5352 14.082 28.7109 13.5352 28.7109Z" fill="white"/>
</svg>
