<svg width="242" height="148" viewBox="0 0 242 148" fill="none" xmlns="http://www.w3.org/2000/svg">
<path d="M58.7021 94.9379C64.0719 107.332 68.7466 120.657 80.946 127.814C85.9752 130.768 91.2372 131.036 96.9338 130.156C104.139 129.044 109.741 127.244 115.977 123.9C122.771 120.254 128.232 114.579 134.098 109.581C139.051 105.358 143.74 100.516 148.512 96.0258C153.138 91.6743 157.674 87.4549 160.822 82.0121L161.573 81.1467C161.747 81.2405 161.921 81.3274 162.105 81.4178V81.1467C162.105 75.5127 161.34 56.4699 161.121 47.7461C149.806 48.205 138.687 50.8561 128.381 55.5523C120.769 59.0279 114.023 63.7269 107.621 69.069C101.848 73.8827 95.9571 79.4263 88.7035 81.8905C80.4177 84.7022 72.4064 81.7063 64.2526 79.9372C59.7586 78.964 55.1847 78.5469 50.7881 79.1308C54.4201 83.7673 56.1857 89.1406 58.7021 94.9379Z" fill="#CEEFFF"/>
<path d="M231.409 64.2999C222.223 55.1 208.741 55.8194 199.405 53.9287C199.423 57.0811 199.468 60.2369 199.621 63.3858C199.777 66.639 199.881 71.2442 199.881 74.5808L199.902 74.7963C200.945 74.5113 201.849 74.4765 202.422 74.904C205.345 77.0937 205.137 81.1601 205.203 88.4589C209.537 93.2622 213.242 98.4965 217.798 103.122C221.458 106.838 223.446 111.116 226.178 115.53C226.435 115.947 226.762 116.49 227.106 117.084C232.479 113.49 238.815 106.737 241.008 95.0174C243.201 83.2976 240.591 73.4999 231.409 64.2999Z" fill="#CEEFFF"/>
<path d="M17.9861 36.8565C19.0878 38.4761 20.2313 40.3495 21.4617 42.0247C18.9349 38.9279 15.5983 41.6354 15.6331 44.9373C15.6748 48.9759 19.6161 49.6189 22.6816 49.8865C26.5048 50.2341 29.9561 49.7267 32.5384 46.4422C34.6794 43.7208 35.9133 41.3191 33.6263 38.4483C31.3394 35.5774 28.3052 32.2443 25.5733 30.0547" stroke="#333333" stroke-width="2" stroke-linecap="round" stroke-linejoin="round"/>
<path d="M8.08343 54.0574C5.78258 51.3603 3.74934 48.4964 2.66495 44.8018C1.48672 40.8084 1.10441 38.4762 1.30947 34.2395C1.67788 26.5931 9.85252 23.1001 15.0694 18.2829C17.7943 15.7666 20.8876 13.7646 23.8384 11.5819C25.9237 10.0457 29.8338 7.41121 32.305 7.41121C35.8953 7.39036 38.2483 11.4638 40.2989 13.8411C42.8917 16.8544 45.0952 19.4021 47.337 22.6691C48.9288 24.9978 51.3548 28.032 50.0723 31.0315C49.0296 33.4644 45.2412 34.9971 42.7422 34.7886" stroke="#333333" stroke-width="2" stroke-linecap="round" stroke-linejoin="round"/>
<path d="M33.1016 20.9629C35.7361 22.1064 40.6402 29.1306 41.7072 31.9006C43.9628 37.7397 37.9118 38.2054 34.6795 40.3846" stroke="#333333" stroke-width="2" stroke-linecap="round" stroke-linejoin="round"/>
<path d="M9.90836 64.2203C14.4962 64.4149 19.2577 63.0594 23.6926 61.8673C27.0366 60.9812 30.2142 59.5573 33.1011 57.6514C33.1011 57.6514 39.4545 69.6527 38.6934 71.526C37.5916 74.2439 29.5942 76.3502 27.3698 76.9028C22.8272 78.0289 17.4678 79.3009 12.032 79.3009C10.9337 74.4177 9.67202 69.1244 8.63281 64.2724C9.09854 64.0743 9.26537 64.2898 9.90836 64.2203Z" stroke="#333333" stroke-width="2" stroke-linecap="round" stroke-linejoin="round"/>
<path d="M46.6531 34.2539C50.0939 38.9008 46.528 40.8367 42.4824 43.8918C40.3761 45.4836 35.0654 48.4483 33.6543 44.7225" stroke="#333333" stroke-width="2" stroke-linecap="round" stroke-linejoin="round"/>
<path d="M9.90821 64.2202C9.90821 64.2202 6.06766 54.4642 5.78613 51.1172" stroke="#333333" stroke-width="2" stroke-linecap="round" stroke-linejoin="round"/>
<path d="M39.617 46.2402C38.2268 51.1061 31.8977 56.3577 26.8477 55.3602" stroke="#333333" stroke-width="2" stroke-linecap="round" stroke-linejoin="round"/>
<path d="M30.7549 55.1006L32.0582 57.968" stroke="#333333" stroke-width="2" stroke-linecap="round" stroke-linejoin="round"/>
<path d="M12.2546 78.8145C9.35943 85.6996 7.70156 92.9498 14.2844 99.1224C9.95375 98.7088 9.90857 110.244 11.7541 113.491" stroke="#333333" stroke-width="2" stroke-linecap="round" stroke-linejoin="round"/>
<path d="M38.6934 71.526C41.2757 71.1958 45.0711 73.5835 47.1738 75.3839C53.4543 80.7537 55.4701 87.4721 58.7024 94.9377C64.0723 107.332 68.747 120.657 80.9464 127.814C85.9756 130.768 91.2376 131.035 96.9342 130.156C104.139 129.044 109.742 127.243 115.977 123.9C122.772 120.254 128.232 114.578 134.099 109.58C139.052 105.358 143.74 100.516 148.512 96.0256C153.138 91.6741 157.674 87.4547 160.823 82.0119" stroke="#333333" stroke-width="2" stroke-linecap="round" stroke-linejoin="round"/>
<path d="M37.0107 9.84804C44.3929 8.98261 53.7319 9.94188 58.1633 10.1469C61.9656 10.3242 65.8305 10.7065 69.6537 10.5397C71.3706 10.4632 74.6029 9.49701 75.948 11.9682C79.8198 19.0792 61.4338 18.895 59.4145 19.0792C54.8754 19.4963 44.1218 19.2391 44.7405 19.1348" stroke="#333333" stroke-width="2" stroke-linecap="round" stroke-linejoin="round"/>
<path d="M65.7265 18.7109C65.6987 21.3142 66.2826 28.8667 67.864 35.2791" stroke="#333333" stroke-width="2" stroke-linecap="round" stroke-linejoin="round"/>
<path d="M199.882 74.581C199.882 71.2444 199.778 66.6392 199.621 63.3861C199.249 55.7397 199.514 48.0934 199.274 40.447C201.411 40.0439 204.835 39.8736 206.395 39.7206C209.092 39.46 211.762 39.4148 212.909 36.4709C213.906 33.9164 213.141 30.6145 210.823 29.0366C207.469 26.7531 202.656 28.4145 198.533 29.0887C197.929 23.3992 196.744 17.4559 193.883 13.1009C191.214 9.01709 183.38 7.15069 178.729 7.63032C173.168 8.20032 168.671 9.77825 163.784 12.3884C154.876 17.1326 146.476 24.0456 139.455 31.3409C142.291 32.3558 161.046 35.317 161.046 35.317C160.997 37.8542 161.046 41.4445 161.046 44.3779C161.046 49.7304 162.088 74.6158 162.088 81.1812" stroke="#333333" stroke-width="2" stroke-linecap="round" stroke-linejoin="round"/>
<path d="M173.286 43.6484C177.252 43.8951 180.154 41.5873 180.714 40.0303" stroke="#333333" stroke-width="2" stroke-linecap="round" stroke-linejoin="round"/>
<path d="M172.779 23.0479L172.258 25.3904" stroke="#333333" stroke-width="2" stroke-linecap="round" stroke-linejoin="round"/>
<path d="M180.262 24.5811L179.63 26.4614" stroke="#333333" stroke-width="2" stroke-linecap="round" stroke-linejoin="round"/>
<path d="M161.573 81.1465C167.405 84.3371 174.471 84.5109 181.117 82.78C184.981 81.7721 188.322 79.7667 192.193 78.3069C194.713 77.3581 200.462 73.4237 202.422 74.8904C205.345 77.08 205.137 81.1465 205.203 88.4452C209.537 93.2485 213.242 98.4828 217.798 103.109C221.458 106.824 223.446 111.103 226.178 115.517C227.12 117.036 228.931 120.188 229.327 121.54" stroke="#333333" stroke-width="2" stroke-linecap="round" stroke-linejoin="round"/>
<path d="M162.355 87.1523C162.154 90.1935 163.634 96.3731 166.394 98.097C171.114 101.048 177.672 90.1796 180.098 87.2253C180.202 91.3961 184.092 99.4908 187.011 102.389C188.888 104.256 190.403 103.509 192.499 102.018C194.352 100.7 201.901 93.1269 201.901 93.1269" stroke="#333333" stroke-width="2" stroke-linecap="round" stroke-linejoin="round"/>
<path d="M179.292 100.957C179.292 110.598 177.728 121.022 175.639 130.34C175.74 127.559 172.761 123.872 169.842 124.678C165.052 126.006 163.627 135.015 162.109 138.733C159.749 135.366 153.496 135.366 149.847 146.835" stroke="#333333" stroke-width="2" stroke-linecap="round" stroke-linejoin="round"/>
<path d="M199.882 131.619C199.882 131.619 209.787 129.485 217.26 129.947" stroke="#333333" stroke-width="2" stroke-linecap="round" stroke-linejoin="round"/>
<path d="M211.348 125.981C212.498 128.911 213.266 131.619 213.169 134.841" stroke="#333333" stroke-width="2" stroke-linecap="round" stroke-linejoin="round"/>
<path d="M207.177 124.679C209.523 130.122 210.023 136.583 210.305 142.404" stroke="#333333" stroke-width="2" stroke-linecap="round" stroke-linejoin="round"/>
<path d="M180.335 123.896L182.16 124.157" stroke="#333333" stroke-width="2" stroke-linecap="round" stroke-linejoin="round"/>
<path d="M167.305 134.841C167.534 135.051 167.793 135.228 168.073 135.366" stroke="#333333" stroke-width="2" stroke-linecap="round" stroke-linejoin="round"/>
<path d="M199.388 48.0763C201.378 45.7174 202.804 42.936 203.559 39.9434C202.092 40.0615 200.469 40.2145 199.256 40.4438C199.353 42.9845 199.378 45.5321 199.388 48.0763Z" fill="#333333"/>
<path d="M204.494 28.0044C204.414 26.5655 204.289 25.1405 204.146 23.7398C203.743 19.8402 203.103 15.6451 200.438 12.5866C200.316 12.4441 200.184 12.305 200.052 12.1695C199.511 11.1839 198.747 10.3387 197.82 9.7018C197.146 9.22087 196.382 8.88068 195.574 8.70154C194.765 8.5224 193.929 8.50797 193.114 8.65912C192.631 3.86625 187.442 -0.248872 182.736 0.202958C179.806 0.484482 177.175 2.01375 174.697 3.45613C171.872 5.09662 168.618 6.81704 165.313 5.69442C164.295 5.34686 163.61 6.73711 164.302 7.43223C170.836 14.1958 181.092 16.4688 189.889 13.445C189.209 16.9012 189.345 20.4683 190.286 23.8627C191.227 27.2572 192.946 30.3854 195.308 32.9988C195.42 33.1114 195.558 33.1967 195.708 33.248C195.859 33.2994 196.02 33.3154 196.178 33.295C196.336 33.2745 196.488 33.218 196.62 33.1299C196.753 33.0418 196.864 32.9244 196.945 32.7868C197.581 31.5738 198.154 30.3261 198.682 29.0575C200.528 28.7516 202.54 28.2442 204.494 28.0044Z" fill="#333333"/>
<path d="M202.745 34.5144C204.017 34.1669 205.3 33.7324 206.655 33.7324" stroke="#333333" stroke-width="2" stroke-linecap="round" stroke-linejoin="round"/>
<path d="M70.6725 31.7334H65.2367C63.936 31.7343 62.6888 32.2512 61.7687 33.1706C60.8487 34.09 60.3309 35.3368 60.3291 36.6375V37.1032C60.33 38.4039 60.8469 39.6511 61.7663 40.5712C62.6857 41.4912 63.9325 42.0089 65.2332 42.0108H66.189C66.189 42.6051 66.189 43.335 66.189 44.1726C66.1368 52.9763 66.0917 62.5065 66.2098 64.1574C66.2388 64.5517 66.4157 64.9205 66.7051 65.19C66.9945 65.4594 67.375 65.6095 67.7704 65.6102H67.8851C68.09 65.5952 68.2901 65.54 68.4737 65.4477C68.6573 65.3554 68.8209 65.2278 68.9552 65.0722C69.0895 64.9166 69.1918 64.7361 69.2562 64.541C69.3207 64.3458 69.3461 64.1399 69.3309 63.9349C69.3309 63.7924 69.3101 63.563 69.3031 63.2676H72.2018C72.6166 63.2676 73.0144 63.1028 73.3077 62.8095C73.601 62.5162 73.7658 62.1184 73.7658 61.7036C73.7658 61.2888 73.601 60.891 73.3077 60.5977C73.0144 60.3043 72.6166 60.1396 72.2018 60.1396H71.1591C71.5739 60.1396 71.9717 59.9748 72.265 59.6815C72.5583 59.3882 72.7231 58.9903 72.7231 58.5755C72.7231 58.1607 72.5583 57.7629 72.265 57.4696C71.9717 57.1763 71.5739 57.0115 71.1591 57.0115H69.2649C69.2649 52.7226 69.2962 47.471 69.317 44.1935C69.317 43.3524 69.317 42.6155 69.317 42.0143H70.669C71.97 42.0124 73.2172 41.4948 74.1372 40.5748C75.0571 39.6549 75.5748 38.4077 75.5766 37.1067V36.641C75.5757 35.3403 75.0588 34.0931 74.1394 33.173C73.22 32.253 71.9732 31.7352 70.6725 31.7334ZM72.452 37.1032C72.4511 37.5749 72.2633 38.027 71.9298 38.3605C71.5963 38.694 71.1442 38.8818 70.6725 38.8827H65.2367C64.7653 38.8818 64.3136 38.6939 63.9806 38.3603C63.6476 38.0267 63.4606 37.5746 63.4606 37.1032V36.6375C63.4606 36.1665 63.6477 35.7147 63.9808 35.3816C64.3139 35.0486 64.7656 34.8614 65.2367 34.8614H70.6725C71.1439 34.8614 71.596 35.0485 71.9296 35.3814C72.2632 35.7144 72.4511 36.1661 72.452 36.6375V37.1032Z" fill="#FFE945"/>
<path d="M67.8646 35.2685C69.2201 30.0551 70.2315 25.2344 70.3566 20.5249C70.4053 18.5543 71.2464 10.9566 69.7831 9.51075C68.4694 8.21435 67.5622 9.0902 66.9609 10.4665" stroke="#333333" stroke-width="2" stroke-linecap="round" stroke-linejoin="round"/>
</svg>
