<svg width="21" height="22" viewBox="0 0 21 22" fill="none" xmlns="http://www.w3.org/2000/svg">
<path d="M21 10.9996C21 5.20063 16.299 0.499626 10.5 0.499626C4.70101 0.499626 0 5.20063 0 10.9996C0 16.2405 3.8397 20.5844 8.85938 21.3721V14.0348H6.19336V10.9996H8.85938V8.68635C8.85938 6.05478 10.427 4.60119 12.8254 4.60119C13.9742 4.60119 15.1758 4.80627 15.1758 4.80627V7.39025H13.8518C12.5474 7.39025 12.1406 8.19963 12.1406 9.02999V10.9996H15.0527L14.5872 14.0348H12.1406V21.3721C17.1603 20.5844 21 16.2405 21 10.9996Z" fill="#1877F2"/>
<path d="M14.5872 14.0352L15.0527 11H12.1406V9.03037C12.1406 8.20001 12.5474 7.39063 13.8518 7.39063H15.1758V4.80664C15.1758 4.80664 13.9742 4.60156 12.8254 4.60156C10.4269 4.60156 8.85937 6.05516 8.85937 8.68672V11H6.19336V14.0352H8.85937V21.3724C9.39395 21.4563 9.94186 21.5 10.5 21.5C11.0581 21.5 11.606 21.4563 12.1406 21.3724V14.0352H14.5872Z" fill="white"/>
</svg>
