<svg width="16" height="12" viewBox="0 0 16 12" fill="none" xmlns="http://www.w3.org/2000/svg">
<path d="M15.3599 6.00471C15.3599 5.82798 15.2166 5.68471 15.0399 5.68471L2.37244 5.68471L6.3062 1.75095C6.38939 1.67061 6.42275 1.55163 6.39346 1.43975C6.36418 1.32787 6.2768 1.2405 6.16492 1.21121C6.05304 1.18193 5.93406 1.21529 5.85372 1.29847L1.37372 5.77847C1.2488 5.90343 1.2488 6.10599 1.37372 6.23095L5.85372 10.711C5.97928 10.8322 6.17887 10.8305 6.3023 10.7071C6.42574 10.5836 6.42747 10.384 6.3062 10.2585L2.37244 6.32471L15.04 6.32471C15.2167 6.32468 15.3599 6.18142 15.3599 6.00471Z" fill="#0E82E8" stroke="#1BBFB4"/>
</svg>
