<svg width="29" height="24" viewBox="0 0 29 24" fill="none" xmlns="http://www.w3.org/2000/svg">
<path fill-rule="evenodd" clip-rule="evenodd" d="M11.8459 15.2526C12.6005 15.6759 13.5202 15.9319 14.4987 15.9319C17.0926 15.9319 19.203 14.1696 19.203 12.0037C19.203 11.1865 18.8965 10.4186 18.3895 9.78855L17.1044 10.8617C17.3166 11.1964 17.4345 11.5902 17.4345 12.0037C17.4345 13.3525 16.114 14.4551 14.4987 14.4551C14.0035 14.4551 13.5319 14.3567 13.1311 14.1795L11.8459 15.2526ZM22.2685 6.54952C23.978 7.84907 25.4282 9.60149 26.5129 11.7083C26.6072 11.8954 26.6072 12.112 26.5129 12.2892C23.9898 17.1921 19.4978 20.1259 14.4987 20.1259H14.4869C12.2114 20.1259 10.0303 19.5056 8.10846 18.3735L5.82117 20.2834C5.64432 20.4311 5.4203 20.5 5.19629 20.5C4.97228 20.5 4.73647 20.4311 4.57141 20.2834C4.27666 20.0373 4.2295 19.6435 4.4653 19.358L4.50067 19.3186L21.9383 4.75771C21.9619 4.73802 21.9855 4.71833 21.9973 4.69864C22.0209 4.67895 22.0444 4.65926 22.0562 4.63957L23.1645 3.71413C23.5182 3.42862 24.0724 3.42862 24.4143 3.71413C24.768 3.99964 24.768 4.4722 24.4143 4.75771L22.2685 6.54952ZM9.78585 12.0075C9.78585 12.2635 9.82122 12.5195 9.86838 12.7558L5.50602 16.3984C4.327 15.2564 3.30125 13.8781 2.48773 12.293C2.39341 12.1158 2.39341 11.8992 2.48773 11.7122C5.01083 6.80933 9.50289 3.88534 14.4901 3.88534H14.5019C16.1879 3.88534 17.8267 4.22007 19.3359 4.85015L15.398 8.13841C15.115 8.09903 14.8085 8.0695 14.5019 8.0695C11.8963 8.0695 9.78585 9.83177 9.78585 12.0075Z" fill="#384268" fill-opacity="0.68"/>
</svg>
