<svg width="150" height="150" viewBox="0 0 150 150" fill="none" xmlns="http://www.w3.org/2000/svg">
<path d="M41.8333 92.68C42.6493 92.1358 43.6321 91.8991 44.6064 92.0123C44.9397 92.0548 45.2697 92.1196 45.5942 92.2062C45.5942 92.2062 51.5266 86.5355 54.9034 84.1263C56.2022 83.1989 57.4479 82.78 58.6717 82.7745C60.2778 81.4153 62.7345 78.7318 64.2016 77.0836V76.8861C63.5046 73.6373 62.0668 70.5147 60.5778 67.5568C59.7894 65.9836 56.804 61.2824 60.3418 61.2952C61.6607 61.2952 63.5119 63.1721 64.5949 64.8733C63.3638 61.8147 62.5113 59.0361 61.2345 55.9574C60.6235 54.4849 58.5253 48.3239 62.3814 48.4172H62.9302C62.7912 47.5684 62.9979 46.8074 64.068 46.3739C66.1881 45.516 67.1339 47.6342 67.968 48.783L67.979 48.7958C68.1839 46.0245 71.7125 47.2702 72.7131 50.4221L72.7278 50.4897C73.0662 50.3562 73.5089 50.3745 74.0705 50.6397C73.9753 50.2062 73.3388 49.041 73.1778 48.3239C72.8119 46.716 73.1174 44.6928 75.0912 45.2416C78.7497 46.2605 80.4656 53.616 81.1827 56.583C80.579 52.5038 80.268 51.3092 79.4156 48.7263C78.9253 47.2391 77.1052 44.7129 77.8955 43.1141C78.8101 41.2611 81.4552 42.5653 82.3772 43.6172C85.4869 47.133 85.6973 52.5806 86.493 56.9434C86.4678 54.2113 86.244 51.4846 85.8235 48.7849C85.4101 46.0922 84.4077 42.7721 85.6662 41.5958C87.8961 39.5123 89.6028 42.805 90.0857 44.6544C91.5381 50.2172 91.4942 56.8903 90.8851 62.7221C91.5418 61.6739 92.2333 60.6586 92.9686 59.6964C94.2162 58.0647 96.4772 54.0257 99.1881 54.9294C101.797 55.7983 99.1881 59.8977 98.482 61.5495C97.2564 64.4068 96.2979 67.3592 95.0705 70.2001C94.4686 71.5977 92.7766 74.3397 92.343 76.3391C92.343 76.3391 96.6711 82.1379 98.8314 84.7538L98.9119 84.7757C99.0308 84.5416 99.1351 84.3147 99.2192 84.1007C102.512 86.7916 104.842 89.6525 107.716 92.4403C108.181 92.8922 108.547 93.2105 108.814 93.5031C108.94 93.3477 109.064 93.1903 109.18 93.033C114.484 86.2062 116.831 77.7623 117.174 69.3971C117.327 64.9565 117.015 60.5121 116.242 56.1367C115.578 52.2513 114.481 48.4263 112.663 44.8721C110.785 41.2069 108.029 38.0644 104.639 35.7257C101.211 33.3477 97.1485 31.8038 93.0564 30.7684C84.4717 28.5952 74.7308 27.8068 66.1662 30.4684C58.0625 32.9855 51.7497 38.6434 47.032 45.1867C38.0156 57.6879 33.6894 74.8812 40.0808 89.2611C40.6009 90.4324 41.186 91.5738 41.8333 92.68Z" fill="#AEEDFF"/>
<path d="M90.8228 103.78C88.7503 101.477 86.3411 98.5976 84.6234 95.9617C84.8393 95.8958 85.0533 95.8263 85.2655 95.755C84.2301 94.5422 78.5393 87.7867 78.2576 85.7635C77.9137 86.1294 77.5625 86.4714 77.2332 86.8245C74.2881 89.9745 72.1753 92.7458 69.4844 96.1226L69.2265 96.2745C69.0308 98.6049 67.3844 100.176 65.7051 102.128C64.0722 103.969 62.3416 105.722 60.521 107.378C65.0411 108.179 69.6673 108.139 74.2405 107.744C78.8137 107.349 83.4326 106.785 87.9125 105.798C89.2204 105.509 90.5247 105.174 91.8125 104.784C91.4192 104.415 91.0789 104.063 90.8228 103.78Z" fill="#AEEDFF"/>
<path d="M18.75 107.413C19.2988 104.989 22.0902 102.203 24.0878 100.696C24.9 100.081 26.2518 99.0037 27.3238 99.4884C28.6152 100.07 28.5238 102.545 29.5189 103.462C29.8152 100.652 32.1549 96.7409 34.2201 94.8641C35.5866 93.6238 37.253 93.911 38.6799 95.036C40.6463 93.836 41.9963 91.7012 44.5976 92.0141C46.811 92.2811 49.0738 93.6842 50.7183 95.1494C53.1567 97.3208 55.2 99.2781 56.603 102.262C57.6055 104.395 57.8323 106.687 58.339 109.07C59.0195 112.266 57.675 114.148 54.2652 114.124C54.2415 115.324 53.2939 116.98 52.6189 117.966C51.5543 119.515 50.389 119.411 49.0957 120.355C48.1921 121.015 47.7037 122.157 47.036 123.018C45.9988 124.355 44.8299 125.53 43.9628 126.966" stroke="#03294E" stroke-width="2" stroke-linecap="round" stroke-linejoin="round"/>
<path d="M51.8597 111.79C52.0265 111.46 52.2601 111.168 52.5457 110.932" stroke="#03294E" stroke-width="2" stroke-linecap="round" stroke-linejoin="round"/>
<path d="M45.5927 92.2061C45.5927 92.2061 51.525 86.5354 54.9018 84.1262C58.1012 81.8415 60.9731 82.6372 64.0244 85.1177C66.9731 87.5159 68.6323 91.1707 69.1774 94.9024C69.6366 98.0378 67.6957 99.8177 65.7018 102.13C64.1762 103.902 59.9652 108.166 58.3445 109.081" stroke="#03294E" stroke-width="2" stroke-linecap="round" stroke-linejoin="round"/>
<path d="M26.1898 65.8537C27.6532 69.3897 27.7557 70.9245 24.9368 73.0995C27.6807 70.5275 29.8044 71.4403 31.738 74.0854C30.1008 71.9324 29.8868 71.3946 30.152 69.8781C30.2965 69.0586 31.6282 67.6464 32.4057 67.0976C30.8929 68.1385 28.0191 69.5726 26.1898 65.8537Z" stroke="#03294E" stroke-width="2" stroke-linecap="round" stroke-linejoin="round"/>
<path d="M58.67 82.7743C61.0865 80.731 65.4292 75.6841 65.4292 75.6841" stroke="#03294E" stroke-width="2" stroke-linecap="round" stroke-linejoin="round"/>
<path d="M69.4849 96.1225C72.1757 92.7457 74.2885 89.9744 77.2336 86.8244C78.2782 85.7067 79.5385 84.5945 80.1605 83.292C80.8519 81.8286 80.9288 79.028 80.9288 77.4018C80.9288 71.0359 80.3397 64.0335 78.1025 58.0116C77.4678 56.3067 75.8617 51.4701 74.0782 50.6305C72.3385 49.8109 71.7275 51.3347 71.9288 52.553C72.4775 55.8567 73.2916 59.2207 73.6373 62.1311" stroke="#03294E" stroke-width="2" stroke-linecap="round" stroke-linejoin="round"/>
<path d="M44.1314 45.3311L39.6735 44.817" stroke="#03294E" stroke-width="2" stroke-linecap="round" stroke-linejoin="round"/>
<path d="M48.803 35.3853L46.189 33.6694" stroke="#03294E" stroke-width="2" stroke-linecap="round" stroke-linejoin="round"/>
<path d="M72.7132 50.4203C71.5553 46.7618 66.9986 45.6642 68.151 50.4203C68.5699 52.1453 68.6888 54.5819 69.1187 56.3416C69.5156 57.9624 70.0333 60.9258 70.0333 60.9258" stroke="#03294E" stroke-width="2" stroke-linecap="round" stroke-linejoin="round"/>
<path d="M74.8279 85.2896C75.3437 85.3518 76.2492 84.7756 76.2492 84.7756" stroke="#03294E" stroke-width="2" stroke-linecap="round" stroke-linejoin="round"/>
<path d="M67.9683 48.7811C67.1341 47.6323 66.1884 45.514 64.0683 46.372C62.1201 47.1604 63.0311 49.0335 63.6896 50.5482C64.9591 53.475 66.7372 60.4884 66.7372 60.4884" stroke="#03294E" stroke-width="2" stroke-linecap="round" stroke-linejoin="round"/>
<path d="M83.9175 84.7757C84.3657 84.3203 84.9382 84.119 85.4614 84.2617" stroke="#03294E" stroke-width="2" stroke-linecap="round" stroke-linejoin="round"/>
<path d="M62.378 48.4153C58.5218 48.322 60.62 54.483 61.231 55.9556C62.5115 59.0342 63.3603 61.8092 64.5914 64.8714C64.9408 65.7385 65.7328 67.8166 65.7328 67.8166" stroke="#03294E" stroke-width="2" stroke-linecap="round" stroke-linejoin="round"/>
<path d="M89.5665 64.939C90.5782 63.1138 91.7151 61.3609 92.969 59.6927C94.2165 58.061 96.4775 54.022 99.1885 54.9256C101.797 55.7945 99.1885 59.8939 98.4824 61.5457C97.2568 64.4031 96.2982 67.3555 95.0708 70.1964C94.2988 71.9854 91.7397 75.9842 92.3269 77.7988" stroke="#03294E" stroke-width="2" stroke-linecap="round" stroke-linejoin="round"/>
<path d="M64.1963 76.886C63.4994 73.6372 62.0616 70.5146 60.5725 67.5567C59.7841 65.9835 56.7987 61.2823 60.3365 61.2951C61.6555 61.2951 63.5067 63.1719 64.5896 64.8732" stroke="#03294E" stroke-width="2" stroke-linecap="round" stroke-linejoin="round"/>
<path d="M90.8853 62.722C91.4944 56.8903 91.5383 50.2172 90.0859 44.6544C89.603 42.805 87.8908 39.5123 85.6664 41.5922C84.4078 42.7684 85.4103 46.0885 85.8237 48.7812C86.2442 51.4809 86.468 54.2076 86.4932 56.9397C85.6975 52.5733 85.4853 47.1294 82.3773 43.6135C81.4627 42.5672 78.8103 41.2574 77.8956 43.1105C77.1054 44.7092 78.9255 47.2355 79.4158 48.7227C80.2682 51.3056 80.5792 52.5001 81.1828 56.5794C80.4658 53.6141 78.7572 46.2586 75.0914 45.2379C73.1176 44.6891 72.8139 46.7123 73.178 48.3202C73.3389 49.0373 73.9755 50.2025 74.0706 50.6361" stroke="#03294E" stroke-width="2" stroke-linecap="round" stroke-linejoin="round"/>
<path d="M92.3359 76.3409C92.3359 76.3409 96.6841 82.1635 98.8371 84.7757" stroke="#03294E" stroke-width="2" stroke-linecap="round" stroke-linejoin="round"/>
<path d="M78.2579 85.7617C78.5671 87.9879 85.2439 95.7605 85.2439 95.7605" stroke="#03294E" stroke-width="2" stroke-linecap="round" stroke-linejoin="round"/>
<path d="M92.5721 91.8733C90.0806 93.5965 87.4501 95.1129 84.6239 95.9617C86.3416 98.5977 88.7507 101.477 90.8233 103.78C91.7379 104.79 93.7026 106.648 95.0654 106.901C96.6093 107.19 98.6745 106.067 99.8471 105.243C102.448 103.414 104.201 101.795 106.495 99.5727C107.455 98.6416 108.803 96.8654 109.156 95.5483C109.586 93.955 109.045 93.7373 107.709 92.4385C104.835 89.6507 102.503 86.7897 99.2123 84.0989C98.3233 86.3416 95.5172 89.8355 92.5721 91.8733Z" stroke="#03294E" stroke-width="2" stroke-linecap="round" stroke-linejoin="round"/>
<path d="M95.0652 106.901C94.542 108.785 94.9682 110.517 95.5865 111.829C96.2688 113.277 98.1475 114.075 98.6505 115.559C99.0987 116.888 98.7219 118.302 99.6841 119.541C100.326 120.366 103.646 122.42 104.669 122.504" stroke="#03294E" stroke-width="2" stroke-linecap="round" stroke-linejoin="round"/>
<path d="M109.299 94.5732C115.579 95.2445 120.132 101.001 123.446 105.847C123.402 104.093 125.127 103.491 126.472 103.604C129.36 103.849 129.664 106.416 131.25 108.236" stroke="#03294E" stroke-width="2" stroke-linecap="round" stroke-linejoin="round"/>
<path d="M122.16 67.7983C121.937 69.1099 120.606 71.3964 119.6 72.3403C118.389 73.4708 116.091 73.5147 114.501 73.6208C119.534 73.6208 118.511 76.6044 118.222 80.4294C118.813 77.3946 119.027 76.3666 119.929 75.3312C121.11 73.9757 122.784 74.3635 124.164 73.7836C122.263 73.8147 121.043 74.0745 120.966 71.9909C120.904 70.4873 121.685 69.2544 122.16 67.7983Z" stroke="#03294E" stroke-width="2" stroke-linecap="round" stroke-linejoin="round"/>
<path d="M111.662 41.2574L114.615 38.9854" stroke="#03294E" stroke-width="2" stroke-linecap="round" stroke-linejoin="round"/>
<path d="M109.643 35.3855L112.043 32.6416" stroke="#03294E" stroke-width="2" stroke-linecap="round" stroke-linejoin="round"/>
<path d="M83.0596 25.4378L83.7456 23.0378" stroke="#03294E" stroke-width="2" stroke-linecap="round" stroke-linejoin="round"/>
<path d="M67.6261 29.0853L66.5962 26.1585" stroke="#03294E" stroke-width="2" stroke-linecap="round" stroke-linejoin="round"/>
</svg>
