<svg width="25" height="24" viewBox="0 0 25 24" fill="none" xmlns="http://www.w3.org/2000/svg">
    <path d="M16.8338 2C20.2231 2 22.5 4.37811 22.5 7.91672V16.0833C22.5 19.6219 20.2231 22 16.8328 22H8.16618C4.7769 22 2.5 19.6219 2.5 16.0833V7.91672C2.5 4.37811 4.7769 2 8.16618 2H16.8338ZM17.9366 12.5501C16.8646 11.8813 16.0371 12.8204 15.8138 13.1207C15.5986 13.4107 15.4136 13.7306 15.2185 14.0506C14.7419 14.84 14.1958 15.7503 13.2506 16.2797C11.877 17.0402 10.8342 16.3395 10.084 15.8297C9.80248 15.6398 9.52897 15.4603 9.25645 15.3406C8.58473 15.0506 7.98038 15.3808 7.0834 16.5201C6.61279 17.1156 6.1462 17.7059 5.67358 18.2941C5.39102 18.646 5.45839 19.1889 5.8395 19.4241C6.44788 19.7988 7.18999 20 8.02864 20H16.4564C16.932 20 17.4087 19.935 17.8632 19.7864C18.8869 19.452 19.6994 18.6863 20.1237 17.6749C20.4817 16.8246 20.6557 15.7926 20.3208 14.934C20.2092 14.6491 20.0423 14.3839 19.808 14.1507C19.1936 13.5408 18.6194 12.9711 17.9366 12.5501ZM8.99886 6C7.62021 6 6.5 7.12173 6.5 8.5C6.5 9.87827 7.62021 11 8.99886 11C10.3765 11 11.4977 9.87827 11.4977 8.5C11.4977 7.12173 10.3765 6 8.99886 6Z" fill="white"/>
    </svg>
    