<svg width="25" height="24" viewBox="0 0 25 24" fill="none" xmlns="http://www.w3.org/2000/svg">
    <path d="M7.92631 18.9079C8.75567 18.9079 9.43514 19.6018 9.43514 20.459C9.43514 21.3061 8.75567 22 7.92631 22C7.08697 22 6.4075 21.3061 6.4075 20.459C6.4075 19.6018 7.08697 18.9079 7.92631 18.9079ZM19.1676 18.9079C19.9969 18.9079 20.6764 19.6018 20.6764 20.459C20.6764 21.3061 19.9969 22 19.1676 22C18.3282 22 17.6487 21.3061 17.6487 20.459C17.6487 19.6018 18.3282 18.9079 19.1676 18.9079ZM3.27823 2.00012L3.38006 2.00874L5.7632 2.3751C6.10293 2.43735 6.35274 2.72207 6.38272 3.06905L6.57257 5.35499C6.60254 5.68257 6.86234 5.92749 7.18209 5.92749H20.6766C21.2861 5.92749 21.6858 6.1418 22.0855 6.61123C22.4852 7.08067 22.5551 7.7542 22.4652 8.36549L21.5159 15.06C21.3361 16.3469 20.2569 17.2949 18.9879 17.2949H8.08639C6.75742 17.2949 5.65828 16.255 5.54837 14.908L4.62908 3.7834L3.12026 3.51807C2.72057 3.44664 2.44079 3.04864 2.51073 2.64043C2.58068 2.22305 2.97038 1.94649 3.38006 2.00874L3.27823 2.00012ZM17.3891 9.70236H14.6213C14.2016 9.70236 13.8719 10.0391 13.8719 10.4677C13.8719 10.8861 14.2016 11.2331 14.6213 11.2331H17.3891C17.8088 11.2331 18.1386 10.8861 18.1386 10.4677C18.1386 10.0391 17.8088 9.70236 17.3891 9.70236Z" fill="white"/>
    </svg>
    