<svg width="25" height="24" viewBox="0 0 25 24" fill="none" xmlns="http://www.w3.org/2000/svg">
    <path d="M22.3099 12.8152C22.3819 12.8557 22.3963 12.9416 22.3992 12.9743L22.4 12.9874L22.3199 18.1519C22.3199 20.212 20.7237 21.892 18.7138 21.995L18.518 22H6.47199C4.43659 22 2.77678 20.3844 2.67503 18.3501L2.67009 18.1519L2.60005 12.9874C2.60005 12.9874 2.60005 12.8659 2.6901 12.8152C2.77014 12.7646 2.87019 12.8254 2.88019 12.8355C4.9012 14.1924 7.33242 15.0937 9.88369 15.4684C10.2439 15.519 10.6041 15.2861 10.7041 14.9216C10.9105 14.1431 11.5477 13.6138 12.3273 13.5507L12.485 13.5443H12.515C13.3654 13.5443 14.0758 14.0912 14.2959 14.9216C14.3959 15.2861 14.7561 15.519 15.1163 15.4684C17.6676 15.0937 20.0988 14.1924 22.1198 12.8355C22.1198 12.8355 22.1398 12.8254 22.1598 12.8152C22.1999 12.795 22.2599 12.7849 22.3099 12.8152ZM12.495 14.9924C12.119 14.9924 11.8018 15.2818 11.7516 15.6498L11.7446 15.7519V17.0583C11.7446 17.4836 12.0848 17.8177 12.495 17.8177C12.8802 17.8177 13.1897 17.5369 13.2386 17.1625L13.2454 17.0583V15.7519C13.2454 15.3367 12.9152 14.9924 12.495 14.9924ZM13.7856 2C15.2864 2 16.517 3.1443 16.7071 4.61264H18.6881C20.7891 4.61264 22.5 6.34428 22.5 8.47085C22.5 8.47085 22.44 9.3711 22.42 10.6248C22.418 10.724 22.3699 10.8212 22.2909 10.88C21.8097 11.2354 21.3694 11.5291 21.3294 11.5493C19.6686 12.6632 17.7386 13.447 15.6826 13.8369C15.5485 13.8632 15.4165 13.7934 15.3484 13.6739C14.7721 12.6754 13.6956 12.0253 12.495 12.0253C11.3024 12.0253 10.2159 12.6683 9.62256 13.6678C9.55353 13.7853 9.42346 13.8531 9.2904 13.8278C7.25138 13.4369 5.32141 12.6541 3.67059 11.5594L2.71011 10.8911C2.63007 10.8405 2.58004 10.7493 2.58004 10.6481C2.55003 10.1316 2.5 8.47085 2.5 8.47085C2.5 6.34428 4.21086 4.61264 6.31191 4.61264H8.28289C8.47299 3.1443 9.7036 2 11.2044 2H13.7856ZM13.7856 3.51898H11.2044C10.534 3.51898 9.96373 3.9848 9.80365 4.61264H15.1863C15.0263 3.9848 14.456 3.51898 13.7856 3.51898Z" fill="white"/>
    </svg>
    