<svg 
          width="20"
          height="20"
          viewBox="0 0 20 20"
          fill="none"
          xmlns="http://www.w3.org/2000/svg"
        >
          <path
            fill-rule="evenodd"
            clip-rule="evenodd"
            d="M10.0001 20C15.5229 20 20.0001 15.5228 20.0001 10C20.0001 4.47715 15.5229 0 10.0001 0C4.47724 0 9.15527e-05 4.47715 9.15527e-05 10C9.15527e-05 15.5228 4.47724 20 10.0001 20ZM9.43019 12.9899L14.1802 8.2399C14.5202 7.8999 14.5202 7.3499 14.1802 6.9999C13.8402 6.6599 13.2802 6.6599 12.9402 6.9999L8.81019 11.1299L7.06019 9.3799C6.72019 9.0399 6.16019 9.0399 5.82019 9.3799C5.48019 9.7199 5.48019 10.2699 5.82019 10.6199L8.20019 12.9899C8.37019 13.1599 8.59019 13.2399 8.81019 13.2399C9.04018 13.2399 9.26019 13.1599 9.43019 12.9899Z"
            fill="white"
          />
        </svg>