<svg width="164" height="201" viewBox="0 0 164 201" fill="none" xmlns="http://www.w3.org/2000/svg">
<path d="M161.229 38.2041C159.418 33.3658 156.757 28.9744 153.616 24.8907C147.547 16.9989 140.05 9.40614 130.977 5.067C121.187 0.39407 110.213 -0.00066191 99.5962 1.11678C79.6361 3.22105 59.1391 8.78502 42.9986 21.1668C27.9959 32.6634 17.0102 50.6585 17.2598 69.9452C17.3088 72.7904 17.5181 75.6306 17.8867 78.4523C18.0812 79.7555 19.5179 81.0877 20.6847 81.1631C32.5179 81.941 50.2315 80.6378 53.787 80.6378C57.3425 80.6378 58.5934 77.9676 59.5657 74.1015C60.9879 68.4476 63.4695 63.2232 66.996 58.8463L65.9076 58.9218C65.1413 58.9682 61.9719 59.598 61.641 59.0117C61.1853 58.2019 64.3722 54.9483 64.8337 54.4027C66.5751 52.3709 68.3398 50.4292 70.2641 48.5658C72.2523 46.6415 74.1302 44.723 76.0284 42.7929C78.6406 40.1256 81.5111 37.6004 84.28 35.0492C84.5383 34.8112 84.8082 34.5732 85.0869 34.3323C83.4089 33.9948 81.8651 33.177 80.6432 31.9784C80.5441 31.8734 80.4775 31.742 80.4513 31.6C80.4251 31.458 80.4406 31.3115 80.4958 31.178C80.551 31.0446 80.6436 30.93 80.7625 30.848C80.8813 30.766 81.0213 30.7201 81.1657 30.7158C86.4278 30.4633 90.3983 26.3041 95.3209 24.911C99.3437 23.7732 106.144 24.8616 107.235 29.6274L107.27 29.7406C110.596 30.234 112.242 33.1017 113.577 35.798C114.84 38.3522 115.293 41.1675 115.49 43.9945C117.797 43.7333 120.105 44.0816 121.666 45.736C124.435 48.6616 122.334 53.0153 119.324 54.8932C120.173 56.4451 120.897 58.062 121.489 59.7286C123.211 64.5682 123.91 69.7124 123.541 74.8358C123.045 81.7407 119.132 88.4337 115.101 94.9091C115.159 96.4735 115.203 98.0205 115.223 99.5298C115.223 100.203 115.223 100.876 115.237 101.547C117.185 102.96 121.176 106.356 122.932 107.81C128.356 112.295 132.771 117.388 137.755 122.259C139.18 119.475 140.773 116.78 142.526 114.19C148.386 105.407 155.088 97.2136 158.548 87.0899C160.362 81.7843 161.308 76.2493 162.031 70.7057C162.733 65.252 163.354 59.7257 163.528 54.2285C163.688 48.8009 163.145 43.3153 161.229 38.2041Z" fill="#1BBFB4" fill-opacity="0.84"/>
<path d="M111.792 65.0373C111.821 61.923 111.839 59.0234 111.827 56.7015C113.808 56.5353 115.768 56.1766 117.679 55.6305C121.452 54.5914 124.935 49.1754 121.667 45.7361C119.072 42.9962 114.437 43.8379 111.131 45.1149C110.939 43.6202 110.707 42.1428 110.414 40.7119C109.578 36.605 108.257 31.7144 104.319 29.4998C97.643 25.7528 89.3566 30.3851 84.2918 35.0493C81.5113 37.5976 78.6466 40.1256 76.0344 42.793C74.1362 44.7231 72.2612 46.6416 70.2701 48.5659C68.3458 50.4293 66.5869 52.3797 64.8397 54.4027C64.3782 54.9368 61.1913 58.202 61.647 59.0118C61.9779 59.5923 65.1473 58.9683 65.9136 58.9218C67.5099 58.8232 69.0859 58.6896 70.6707 58.5939C71.8984 58.5184 75.2827 58.5939 75.2827 58.5939C75.2827 58.5939 75.1085 61.386 75.1143 62.8663C75.1462 71.7767 75.7761 80.6901 75.7761 89.6558" stroke="#333333" stroke-width="3" stroke-linecap="round" stroke-linejoin="round"/>
<path d="M114.721 50.7048C115.272 50.5974 115.844 50.49 116.364 50.3739" stroke="#333333" stroke-width="3" stroke-linecap="round" stroke-linejoin="round"/>
<path d="M94.5547 49.6628V47.2741" stroke="#333333" stroke-width="3" stroke-linecap="round" stroke-linejoin="round"/>
<path d="M87.3015 49.6628V47.2741" stroke="#333333" stroke-width="3" stroke-linecap="round" stroke-linejoin="round"/>
<path d="M89.1184 59.6968C90.2794 58.826 93.2254 57.1832 94.3777 58.7099" stroke="#333333" stroke-width="3" stroke-linecap="round" stroke-linejoin="round"/>
<path d="M115.127 101.469C117.031 102.83 121.141 106.33 122.932 107.81C128.565 112.454 133.111 117.777 138.332 122.825C144.459 128.743 149.785 135.958 154.74 142.889" stroke="#333333" stroke-width="3" stroke-linecap="round" stroke-linejoin="round"/>
<path d="M71.2395 98.0378C73.2973 100.215 75.7644 101.689 78.2721 101.689" stroke="#333333" stroke-width="3" stroke-linecap="round" stroke-linejoin="round"/>
<path d="M115.252 120.898C115.252 120.898 115.197 115.906 115.214 113.148C115.24 108.615 115.281 104.055 115.214 99.5329C115.089 90.2712 114.178 79.7266 113.197 70.5926C113.011 68.886 111.818 60.6228 107.357 62.2539C105.114 63.0753 105.616 68.619 105.616 70.5926C105.616 73.6866 105.616 77.8923 105.616 80.7222C105.616 83.552 105.265 86.6809 105.265 86.6809" stroke="#333333" stroke-width="3" stroke-linecap="round" stroke-linejoin="round"/>
<path d="M105.79 87.2293C105.79 87.2293 103.311 85.4588 101.791 84.8841C99.2596 83.9321 97.2975 82.9395 94.6679 82.5622C93.1006 82.3358 90.8628 82.2139 89.3332 82.8698C88.2245 83.3458 86.4569 85.3949 86.6166 86.3528" stroke="#333333" stroke-width="3" stroke-linecap="round" stroke-linejoin="round"/>
<path d="M98.621 91.4668C98.621 91.4668 95.4283 89.4351 93.7014 88.7153C91.8932 87.9519 89.2316 86.4862 87.2812 86.6981C84.0885 87.0406 80.2021 91.2085 80.0454 94.5057" stroke="#333333" stroke-width="3" stroke-linecap="round" stroke-linejoin="round"/>
<path d="M92.6972 96.723C92.6972 96.723 90.085 94.8364 88.4306 94.4011C86.8691 93.9947 85.2379 93.4839 83.5981 93.5855C81.2761 93.7277 79.6478 94.9961 78.8206 97.2222C77.9122 99.6661 77.5523 109.851 82.5067 108.713C84.9332 108.156 83.9899 103.587 83.392 101.985C84.582 103.878 86.8575 104.888 89.0343 104.104C83.2585 104.159 87.0026 118.648 93.0252 117.917" stroke="#333333" stroke-width="3" stroke-linecap="round" stroke-linejoin="round"/>
<path d="M2.45166 159.34C2.65483 155.471 3.62715 152.926 5.30766 149.472C6.94464 146.111 11.693 140.428 14.4591 138.051C17.2251 135.674 21.6078 133.407 26.3591 132.536C29.5517 127.933 38.1313 120.091 44.0639 115.969C49.9965 111.848 57.27 106.681 68.0932 100.11C69.0133 99.553 71.2482 98.0234 71.2482 98.0234C71.2482 98.0234 72.2843 95.1209 72.9896 93.7742C73.721 92.3752 74.2551 91.2026 75.3116 89.6672C77.7322 89.8936 81.7782 90.2884 81.7782 90.2884" stroke="#333333" stroke-width="3" stroke-linecap="round" stroke-linejoin="round"/>
<path d="M92.0385 118.575C91.7105 121.928 91.8876 127.942 91.8876 127.942" stroke="#333333" stroke-width="3" stroke-linecap="round" stroke-linejoin="round"/>
<path d="M102.612 127.947C98.9519 128.69 94.1774 129.19 90.7874 127.947C90.7874 131.366 91.0776 136.312 91.2547 139.917C91.4201 143.446 91.0805 149.785 91.8351 150.479C92.5898 151.173 95.1874 151.228 97.0914 151.109C101.924 150.798 106.739 148.822 110.916 146.712C112.268 146.033 113.447 145.487 114.718 144.709C115.348 144.323 116.75 143.22 117.194 142.613C117.821 141.769 117.676 139.261 117.676 138.132C117.676 135.778 117.385 129.404 117.121 127.085C116.697 123.434 116.689 120.201 115.502 120.201C114.149 123.594 106.931 127.074 102.612 127.947Z" stroke="#333333" stroke-width="3" stroke-linecap="round" stroke-linejoin="round"/>
<path d="M87.2726 114.143C86.6515 116.396 75.7499 132.081 80.7885 132.879C81.578 133.004 83.0844 131.59 83.8361 132.063C85.2177 132.934 82.9973 136.565 82.6258 137.317C81.6999 139.2 78.5769 144.509 82.6867 142.294C83.4907 143.94 81.1107 148.819 79.674 150.087" stroke="#333333" stroke-width="3" stroke-linecap="round" stroke-linejoin="round"/>
<path d="M47.248 143.891C47.5092 145.246 46.9926 147.374 46.087 148.346C44.6358 149.91 42.2123 150.436 38.5407 150.479C44.2062 150.874 42.726 154.4 40.4157 156.963C38.1053 159.526 32.4978 159.462 32.4978 158.188C32.4978 155.602 37.6758 154.25 40.285 154.151C42.2036 154.078 48.1216 152.99 46.4527 157.779C50.1533 154.296 52.7626 152.987 57.0437 151.733C61.3248 150.479 64.0851 152.409 64.5901 156.403C66.5318 153.832 68.1746 152.377 71.109 150.92C73.3874 149.791 76.3943 149.722 78.8004 150.087C82.0541 150.581 85.7373 151.777 88.75 152.97" stroke="#333333" stroke-width="3" stroke-linecap="round" stroke-linejoin="round"/>
<path d="M91.8381 150.479C90.4246 151.257 89.1127 152.531 88.0272 153.753C86.7879 155.143 86.0449 157.756 85.1248 159.468C83.1772 163.119 81.6418 167.929 81.5112 172.082C81.4329 174.598 82.5474 176.198 83.4849 178.444C84.3179 180.447 84.0509 180.267 82.9915 181.808C81.4242 184.092 81.2152 187.291 80.6869 189.92C80.2835 191.932 79.9497 193.917 80.3967 195.96C80.6463 197.121 81.3342 198.172 81.1891 199.406C81.1658 199.092 81.2994 198.924 81.3574 198.619" stroke="#333333" stroke-width="3" stroke-linecap="round" stroke-linejoin="round"/>
<path d="M117.197 142.614C119.655 148.105 119.942 156.31 120.511 162.623C121.002 168.033 121.556 173.513 121.785 178.943C121.855 180.557 120.932 187.012 122.116 187.941" stroke="#333333" stroke-width="3" stroke-linecap="round" stroke-linejoin="round"/>
<path d="M119.861 152.148C123.678 151.321 126.989 151.452 130.977 151.452C134.841 151.452 137.653 152.531 140.692 155.036C143.661 157.468 145.464 161.349 146.114 165.015C146.52 167.319 147.643 173.394 145.617 174.944C143.591 176.494 142.364 174.297 141.238 171.255" stroke="#333333" stroke-width="3" stroke-linecap="round" stroke-linejoin="round"/>
<path d="M123.376 169.368C124.386 170.621 124.921 172.191 124.888 173.8C124.801 175.425 123.373 179.315 124.459 180.661C127.611 184.603 130.658 175.402 130.667 173.06C130.676 170.718 130.702 168.898 130.255 167.644" stroke="#333333" stroke-width="3" stroke-linecap="round" stroke-linejoin="round"/>
<path d="M128.69 179.39C128.963 180.653 129.297 182.348 131.056 182.377C132.626 182.403 133.746 180.136 134.22 178.955C135.63 175.429 135.633 172.358 135.256 168.544C135.061 166.582 134.304 164.623 133.784 162.957" stroke="#333333" stroke-width="3" stroke-linecap="round" stroke-linejoin="round"/>
<path d="M136.933 159.34C141.365 164.962 143.028 174.688 138.75 181.495C137.589 183.332 133.668 184.336 134.219 178.955" stroke="#333333" stroke-width="3" stroke-linecap="round" stroke-linejoin="round"/>
<path d="M82.0134 182.841C77.9499 184.531 73.7269 186.716 69.4429 187.776C66.8783 188.382 64.266 188.764 61.6353 188.919C59.1857 189.09 55.993 189.993 53.5811 189.253" stroke="#333333" stroke-width="3" stroke-linecap="round" stroke-linejoin="round"/>
<path d="M94.8479 146.183V146.677" stroke="#333333" stroke-width="3" stroke-linecap="round" stroke-linejoin="round"/>
<path d="M111.815 62.2075C111.903 62.3085 112.016 62.3846 112.143 62.4281C112.27 62.4717 112.406 62.4811 112.537 62.4555C112.668 62.4299 112.791 62.3702 112.892 62.2824C112.993 62.1945 113.069 62.0816 113.113 61.955C113.836 60.1322 114.38 58.2435 114.738 56.3156C113.778 56.4942 112.809 56.6231 111.836 56.7016C111.836 58.3008 111.83 60.1787 111.815 62.2075Z" fill="#333333"/>
<path d="M112.379 48.2117C112.463 46.9898 112.651 45.7824 112.75 44.5663C113.645 44.2947 114.562 44.1005 115.49 43.9858C115.293 41.1588 114.84 38.3435 113.577 35.7893C112.242 33.0929 110.596 30.2253 107.27 29.7319L107.235 29.6187C106.144 24.8529 99.3437 23.7645 95.3209 24.9023C90.3868 26.2925 86.4279 30.4517 81.1657 30.7071C81.0214 30.7114 80.8814 30.7573 80.7625 30.8393C80.6437 30.9213 80.5511 31.0359 80.4959 31.1693C80.4407 31.3027 80.4252 31.4493 80.4514 31.5913C80.4775 31.7333 80.5442 31.8647 80.6433 31.9697C83.8186 35.0666 87.8588 34.7386 91.6987 34.4165C94.2006 34.2075 97.3672 32.6315 99.782 31.9C101.854 31.2731 103.401 31.8072 104.977 33.3513C104.107 36.1608 104.156 38.4392 105.41 41.2662C106.664 44.0932 109.398 45.942 111.003 48.5745C111.086 48.7106 111.211 48.8161 111.36 48.8755C111.508 48.9348 111.671 48.9449 111.825 48.9042C111.98 48.8635 112.117 48.7742 112.217 48.6495C112.316 48.5247 112.373 48.3713 112.379 48.2117Z" fill="#333333"/>
<path d="M124.38 171.275C123.771 172.413 122.845 172.648 121.696 172.871" stroke="#333333" stroke-width="3" stroke-linecap="round" stroke-linejoin="round"/>
</svg>
