<svg width="13" height="14" viewBox="0 0 13 14" fill="none" xmlns="http://www.w3.org/2000/svg">
<path d="M8.66602 2.125H0.541016V9.16667H8.66602V2.125Z" stroke="#1BBFB4" stroke-linecap="round" stroke-linejoin="round"/>
<path d="M8.66602 4.8335H10.8327L12.4577 6.4585V9.16683H8.66602V4.8335Z" stroke="#1BBFB4" stroke-linecap="round" stroke-linejoin="round"/>
<path d="M2.97917 11.8748C3.72705 11.8748 4.33333 11.2686 4.33333 10.5207C4.33333 9.77278 3.72705 9.1665 2.97917 9.1665C2.23128 9.1665 1.625 9.77278 1.625 10.5207C1.625 11.2686 2.23128 11.8748 2.97917 11.8748Z" stroke="#1BBFB4" stroke-linecap="round" stroke-linejoin="round"/>
<path d="M10.0202 11.8748C10.7681 11.8748 11.3743 11.2686 11.3743 10.5207C11.3743 9.77278 10.7681 9.1665 10.0202 9.1665C9.2723 9.1665 8.66602 9.77278 8.66602 10.5207C8.66602 11.2686 9.2723 11.8748 10.0202 11.8748Z" stroke="#1BBFB4" stroke-linecap="round" stroke-linejoin="round"/>
</svg>
