<svg t="1648701401246" class="icon" viewBox="0 0 1077 1024" version="1.1" xmlns="http://www.w3.org/2000/svg" p-id="4730" width="32" height="32"><path d="M471.578947 943.157895C211.132632 943.157895 0 732.025263 0 471.578947S211.132632 0 471.578947 0 943.157895 211.132632 943.157895 471.578947 732.025263 943.157895 471.578947 943.157895z m0-53.894737C702.248421 889.263158 889.263158 702.248421 889.263158 471.578947 889.263158 240.909474 702.248421 53.894737 471.578947 53.894737 240.909474 53.894737 53.894737 240.909474 53.894737 471.578947 53.894737 702.248421 240.909474 889.263158 471.578947 889.263158z" p-id="4731" fill="#455B71"></path><path d="M269.473684 458.105263h431.157895v53.894737H269.473684z" p-id="4732" fill="#455B71"></path><path d="M512 269.473684v431.157895h-53.894737V269.473684zM912.788211 818.930526l152.441263 152.441263-38.103579 38.103579-152.441263-152.441263z" p-id="4733" fill="#455B71"></path></svg>