<svg xmlns="http://www.w3.org/2000/svg" xmlns:xlink="http://www.w3.org/1999/xlink" fill="none" version="1.1" width="30" height="30" viewBox="0 0 30 30"><defs><mask id="master_svg_0"><g style="mix-blend-mode:passthrough"><path d="M15,25C20.5228,25,25,20.5228,25,15C25,9.47715,20.5228,5,15,5C9.47715,5,5,9.47715,5,15C5,20.5228,9.47715,25,15,25ZM15,23C10.58172,23,7,19.418300000000002,7,15C7,10.58172,10.58172,7,15,7C19.418300000000002,7,23,10.58172,23,15C23,19.418300000000002,19.418300000000002,23,15,23ZM17.2929,11.29289L15,13.58579L12.70711,11.29289C12.31658,10.902370000000001,11.68342,10.902370000000001,11.29289,11.29289C10.902370000000001,11.68342,10.902370000000001,12.31658,11.29289,12.70711L13.58579,15L11.29289,17.2929C10.902370000000001,17.6834,10.902370000000001,18.3166,11.29289,18.7071C11.68342,19.0976,12.31658,19.0976,12.70711,18.7071L15,16.4142L17.2929,18.7071C17.6834,19.0976,18.3166,19.0976,18.7071,18.7071C19.0976,18.3166,19.0976,17.6834,18.7071,17.2929L16.4142,15L18.7071,12.70711C19.0976,12.31658,19.0976,11.68342,18.7071,11.29289C18.3166,10.902370000000001,17.6834,10.902370000000001,17.2929,11.29289Z" fill-rule="evenodd" fill="#FFFFFF" fill-opacity="1"/></g></mask></defs><g style="mix-blend-mode:passthrough"><g><g style="mix-blend-mode:passthrough"><g><g style="mix-blend-mode:passthrough"></g><g style="mix-blend-mode:passthrough"></g><g style="mix-blend-mode:passthrough"><g><g style="mix-blend-mode:passthrough"><path d="M15,25C20.5228,25,25,20.5228,25,15C25,9.47715,20.5228,5,15,5C9.47715,5,5,9.47715,5,15C5,20.5228,9.47715,25,15,25ZM15,23C10.58172,23,7,19.418300000000002,7,15C7,10.58172,10.58172,7,15,7C19.418300000000002,7,23,10.58172,23,15C23,19.418300000000002,19.418300000000002,23,15,23ZM17.2929,11.29289L15,13.58579L12.70711,11.29289C12.31658,10.902370000000001,11.68342,10.902370000000001,11.29289,11.29289C10.902370000000001,11.68342,10.902370000000001,12.31658,11.29289,12.70711L13.58579,15L11.29289,17.2929C10.902370000000001,17.6834,10.902370000000001,18.3166,11.29289,18.7071C11.68342,19.0976,12.31658,19.0976,12.70711,18.7071L15,16.4142L17.2929,18.7071C17.6834,19.0976,18.3166,19.0976,18.7071,18.7071C19.0976,18.3166,19.0976,17.6834,18.7071,17.2929L16.4142,15L18.7071,12.70711C19.0976,12.31658,19.0976,11.68342,18.7071,11.29289C18.3166,10.902370000000001,17.6834,10.902370000000001,17.2929,11.29289Z" fill-rule="evenodd" fill="#000000" fill-opacity="1"/></g></g><g mask="url(#master_svg_0)"><g style="mix-blend-mode:passthrough"><rect x="5" y="5" width="20" height="20" rx="0" fill="#455B71" fill-opacity="1"/></g></g></g></g></g></g></g></svg>