<svg xmlns="http://www.w3.org/2000/svg" xmlns:xlink="http://www.w3.org/1999/xlink" fill="none" version="1.1" width="30" height="30" viewBox="0 0 30 30"><defs><mask id="master_svg_0"><g style="mix-blend-mode:passthrough"><path d="M16.06347,22.8197L16.06347,14.65888L18.316209999999998,14.65888L18.61474,11.846630000000001L16.06347,11.846630000000001L16.0673,10.439070000000001C16.0673,9.70559,16.13699,9.312570000000001,17.19048,9.312570000000001L18.5988,9.312570000000001L18.5988,6.5L16.34574,6.5C13.63946,6.5,12.68692,7.86425,12.68692,10.15848L12.68692,11.84695L11,11.84695L11,14.6592L12.68692,14.6592L12.68692,22.8197L16.06347,22.8197Z" fill-rule="evenodd" fill="#FFFFFF" fill-opacity="1"/></g></mask></defs><g style="mix-blend-mode:passthrough"><g><g style="mix-blend-mode:passthrough"><g><g style="mix-blend-mode:passthrough"><path d="M16.06347,22.8197L16.06347,14.65888L18.316209999999998,14.65888L18.61474,11.846630000000001L16.06347,11.846630000000001L16.0673,10.439070000000001C16.0673,9.70559,16.13699,9.312570000000001,17.19048,9.312570000000001L18.5988,9.312570000000001L18.5988,6.5L16.34574,6.5C13.63946,6.5,12.68692,7.86425,12.68692,10.15848L12.68692,11.84695L11,11.84695L11,14.6592L12.68692,14.6592L12.68692,22.8197L16.06347,22.8197Z" fill-rule="evenodd" fill="#000000" fill-opacity="1"/></g></g><g mask="url(#master_svg_0)"><g style="mix-blend-mode:passthrough"><rect x="0" y="0" width="30" height="30" rx="0" fill="#222222" fill-opacity="1"/></g></g></g></g></g></svg>