<svg xmlns="http://www.w3.org/2000/svg" xmlns:xlink="http://www.w3.org/1999/xlink" fill="none" version="1.1" width="50" height="50" viewBox="0 0 50 50"><defs><mask id="master_svg_0"><g style="mix-blend-mode:passthrough"><path d="M23.333399999999997,9.999921953125L23.333399999999997,39.999951953125C23.333399999999997,40.920351953125,24.0796,41.666551953125,25,41.666551953125C25.9205,41.666551953125,26.6667,40.920351953125,26.6667,39.999951953125L26.6667,9.999921953125C26.6667,9.079443953125,25.9205,8.333251953125,25,8.333251953125C24.0796,8.333251953125,23.333399999999997,9.079443953125,23.333399999999997,9.999921953125ZM10,16.666671953125L10,39.999951953125C10,40.920451953125,10.746192,41.666651953125,11.66667,41.666651953125C12.58714,41.666651953125,13.33333,40.920451953125,13.33333,39.999951953125L13.33333,16.666671953125C13.33333,15.746191953124999,12.58714,15.000001953125,11.66667,15.000001953125C10.746192,15.000001953125,10,15.746191953124999,10,16.666671953125ZM36.6666,39.999951953125L36.6666,24.999951953125C36.6666,24.079451953125,37.412800000000004,23.333251953125,38.3333,23.333251953125C39.2538,23.333251953125,40,24.079451953125,40,24.999951953125L40,39.999951953125C40,40.920351953125,39.2538,41.666551953125,38.3333,41.666551953125C37.412800000000004,41.666551953125,36.6666,40.920351953125,36.6666,39.999951953125Z" fill-rule="evenodd" fill="#FFFFFF" fill-opacity="1"/></g></mask></defs><g style="mix-blend-mode:passthrough"><g><g style="mix-blend-mode:passthrough"><g><g style="mix-blend-mode:passthrough"></g><g style="mix-blend-mode:passthrough"></g><g style="mix-blend-mode:passthrough"><g><g style="mix-blend-mode:passthrough"><path d="M23.333399999999997,9.999921953125L23.333399999999997,39.999951953125C23.333399999999997,40.920351953125,24.0796,41.666551953125,25,41.666551953125C25.9205,41.666551953125,26.6667,40.920351953125,26.6667,39.999951953125L26.6667,9.999921953125C26.6667,9.079443953125,25.9205,8.333251953125,25,8.333251953125C24.0796,8.333251953125,23.333399999999997,9.079443953125,23.333399999999997,9.999921953125ZM10,16.666671953125L10,39.999951953125C10,40.920451953125,10.746192,41.666651953125,11.66667,41.666651953125C12.58714,41.666651953125,13.33333,40.920451953125,13.33333,39.999951953125L13.33333,16.666671953125C13.33333,15.746191953124999,12.58714,15.000001953125,11.66667,15.000001953125C10.746192,15.000001953125,10,15.746191953124999,10,16.666671953125ZM36.6666,39.999951953125L36.6666,24.999951953125C36.6666,24.079451953125,37.412800000000004,23.333251953125,38.3333,23.333251953125C39.2538,23.333251953125,40,24.079451953125,40,24.999951953125L40,39.999951953125C40,40.920351953125,39.2538,41.666551953125,38.3333,41.666551953125C37.412800000000004,41.666551953125,36.6666,40.920351953125,36.6666,39.999951953125Z" fill-rule="evenodd" fill="#000000" fill-opacity="1"/></g></g><g mask="url(#master_svg_0)"><g style="mix-blend-mode:passthrough"><rect x="8.3333740234375" y="8.333251953125" width="33.33333206176758" height="33.33333206176758" rx="0" fill="#455B71" fill-opacity="1"/></g></g></g></g></g></g></g></svg>