<svg xmlns="http://www.w3.org/2000/svg" xmlns:xlink="http://www.w3.org/1999/xlink" fill="none" version="1.1" width="30" height="30" viewBox="0 0 30 30"><defs><mask id="master_svg_0"><g style="mix-blend-mode:passthrough"><path d="M11.70205,7.0483338C12.555060000000001,7.009515,12.82785,7.00000729305,14.998249999999999,7.00000000419521L15.00075,7C17.171799999999998,7.00000729081,17.4436,7.00951499,18.296599999999998,7.0483338C19.1483,7.0873342,19.73,7.222169,20.240000000000002,7.420004C20.7666,7.624173,21.2116,7.897509,21.6567,8.34251C22.1017,8.78719,22.375,9.23352,22.58,9.7597C22.776699999999998,10.26837,22.9117,10.84971,22.951700000000002,11.70138C22.990000000000002,12.55472,23,12.827390000000001,23,15.00008C23,17.172800000000002,22.990000000000002,17.4448,22.951700000000002,18.298099999999998C22.9117,19.1495,22.776699999999998,19.731,22.58,20.239800000000002C22.375,20.7658,22.1017,21.2121,21.6567,21.6568C21.2121,22.1018,20.7665,22.375799999999998,20.2405,22.580199999999998C19.7315,22.778,19.1495,22.9128,18.297800000000002,22.9518C17.4444,22.9907,17.1726,23.0002,14.999749999999999,23.0002C12.82723,23.0002,12.55472,22.9907,11.70138,22.9518C10.84987,22.9128,10.26837,22.778,9.759360000000001,22.580199999999998C9.23352,22.375799999999998,8.78719,22.1018,8.34268,21.6568C7.897843,21.2121,7.624507,20.7658,7.420004,20.2396C7.222336,19.731,7.0875009,19.1496,7.0483338,18.298000000000002C7.00966677,17.4446,7,17.172800000000002,7,15.00008C7,12.827390000000001,7.0100001,12.55456,7.0481672,11.70122C7.0865009,10.84987,7.221502,10.26837,7.419838,9.75953C7.62484,9.23352,7.898176,8.78719,8.34318,8.34251C8.78785,7.897676,9.23419,7.62434,9.76036,7.420004C10.26903,7.222169,10.85037,7.0873342,11.70205,7.0483338ZM18.3111,10.72972C18.3111,10.19955,18.7411,9.77005,19.2711,9.77005L19.2711,9.76971C19.801099999999998,9.76971,20.231099999999998,10.19972,20.231099999999998,10.72972C20.231099999999998,11.259730000000001,19.801099999999998,11.68973,19.2711,11.68973C18.7411,11.68973,18.3111,11.259730000000001,18.3111,10.72972ZM15.0006,10.89172C12.731819999999999,10.89181,10.8924,12.731300000000001,10.8924,15.0001C10.8924,17.269,12.73191,19.107599999999998,15.00077,19.107599999999998C17.2696,19.107599999999998,19.1085,17.269,19.1085,15.0001C19.1085,12.73124,17.2695,10.89172,15.0006,10.89172ZM17.6674,15.00007C17.6674,13.52722,16.47342,12.33337,15.00074,12.33337C13.52789,12.33337,12.334050000000001,13.52722,12.334050000000001,15.00007C12.334050000000001,16.472749999999998,13.52789,17.666800000000002,15.00074,17.666800000000002C16.47342,17.666800000000002,17.6674,16.472749999999998,17.6674,15.00007Z" fill-rule="evenodd" fill="#FFFFFF" fill-opacity="1"/></g></mask></defs><g style="mix-blend-mode:passthrough"><g><g style="mix-blend-mode:passthrough"><g><g style="mix-blend-mode:passthrough"><path d="M11.70205,7.0483338C12.555060000000001,7.009515,12.82785,7.00000729305,14.998249999999999,7.00000000419521L15.00075,7C17.171799999999998,7.00000729081,17.4436,7.00951499,18.296599999999998,7.0483338C19.1483,7.0873342,19.73,7.222169,20.240000000000002,7.420004C20.7666,7.624173,21.2116,7.897509,21.6567,8.34251C22.1017,8.78719,22.375,9.23352,22.58,9.7597C22.776699999999998,10.26837,22.9117,10.84971,22.951700000000002,11.70138C22.990000000000002,12.55472,23,12.827390000000001,23,15.00008C23,17.172800000000002,22.990000000000002,17.4448,22.951700000000002,18.298099999999998C22.9117,19.1495,22.776699999999998,19.731,22.58,20.239800000000002C22.375,20.7658,22.1017,21.2121,21.6567,21.6568C21.2121,22.1018,20.7665,22.375799999999998,20.2405,22.580199999999998C19.7315,22.778,19.1495,22.9128,18.297800000000002,22.9518C17.4444,22.9907,17.1726,23.0002,14.999749999999999,23.0002C12.82723,23.0002,12.55472,22.9907,11.70138,22.9518C10.84987,22.9128,10.26837,22.778,9.759360000000001,22.580199999999998C9.23352,22.375799999999998,8.78719,22.1018,8.34268,21.6568C7.897843,21.2121,7.624507,20.7658,7.420004,20.2396C7.222336,19.731,7.0875009,19.1496,7.0483338,18.298000000000002C7.00966677,17.4446,7,17.172800000000002,7,15.00008C7,12.827390000000001,7.0100001,12.55456,7.0481672,11.70122C7.0865009,10.84987,7.221502,10.26837,7.419838,9.75953C7.62484,9.23352,7.898176,8.78719,8.34318,8.34251C8.78785,7.897676,9.23419,7.62434,9.76036,7.420004C10.26903,7.222169,10.85037,7.0873342,11.70205,7.0483338ZM18.3111,10.72972C18.3111,10.19955,18.7411,9.77005,19.2711,9.77005L19.2711,9.76971C19.801099999999998,9.76971,20.231099999999998,10.19972,20.231099999999998,10.72972C20.231099999999998,11.259730000000001,19.801099999999998,11.68973,19.2711,11.68973C18.7411,11.68973,18.3111,11.259730000000001,18.3111,10.72972ZM15.0006,10.89172C12.731819999999999,10.89181,10.8924,12.731300000000001,10.8924,15.0001C10.8924,17.269,12.73191,19.107599999999998,15.00077,19.107599999999998C17.2696,19.107599999999998,19.1085,17.269,19.1085,15.0001C19.1085,12.73124,17.2695,10.89172,15.0006,10.89172ZM17.6674,15.00007C17.6674,13.52722,16.47342,12.33337,15.00074,12.33337C13.52789,12.33337,12.334050000000001,13.52722,12.334050000000001,15.00007C12.334050000000001,16.472749999999998,13.52789,17.666800000000002,15.00074,17.666800000000002C16.47342,17.666800000000002,17.6674,16.472749999999998,17.6674,15.00007Z" fill-rule="evenodd" fill="#000000" fill-opacity="1"/></g></g><g mask="url(#master_svg_0)"><g style="mix-blend-mode:passthrough"><rect x="0" y="0" width="30" height="30" rx="0" fill="#222222" fill-opacity="1"/></g></g></g></g></g></svg>