<svg xmlns="http://www.w3.org/2000/svg" xmlns:xlink="http://www.w3.org/1999/xlink" fill="none" version="1.1" width="30" height="30" viewBox="0 0 30 30"><defs><mask id="master_svg_0"><g style="mix-blend-mode:passthrough"><path d="M6.5,11L23.5,11C24.0523,11,24.5,10.55228,24.5,10C24.5,9.447715,24.0523,9,23.5,9L6.5,9C5.947715,9,5.5,9.447715,5.5,10C5.5,10.55228,5.947715,11,6.5,11ZM23.5,16L6.5,16C5.947715,16,5.5,15.55228,5.5,15C5.5,14.44772,5.947715,14,6.5,14L23.5,14C24.0523,14,24.5,14.44772,24.5,15C24.5,15.55228,24.0523,16,23.5,16ZM6.5,21L23.5,21C24.0523,21,24.5,20.552300000000002,24.5,20C24.5,19.447699999999998,24.0523,19,23.5,19L6.5,19C5.947715,19,5.5,19.447699999999998,5.5,20C5.5,20.552300000000002,5.947715,21,6.5,21Z" fill-rule="evenodd" fill="#FFFFFF" fill-opacity="1"/></g></mask></defs><g style="mix-blend-mode:passthrough"><g><g style="mix-blend-mode:passthrough"><g><g style="mix-blend-mode:passthrough"></g><g style="mix-blend-mode:passthrough"></g><g style="mix-blend-mode:passthrough"><g><g style="mix-blend-mode:passthrough"><path d="M6.5,11L23.5,11C24.0523,11,24.5,10.55228,24.5,10C24.5,9.447715,24.0523,9,23.5,9L6.5,9C5.947715,9,5.5,9.447715,5.5,10C5.5,10.55228,5.947715,11,6.5,11ZM23.5,16L6.5,16C5.947715,16,5.5,15.55228,5.5,15C5.5,14.44772,5.947715,14,6.5,14L23.5,14C24.0523,14,24.5,14.44772,24.5,15C24.5,15.55228,24.0523,16,23.5,16ZM6.5,21L23.5,21C24.0523,21,24.5,20.552300000000002,24.5,20C24.5,19.447699999999998,24.0523,19,23.5,19L6.5,19C5.947715,19,5.5,19.447699999999998,5.5,20C5.5,20.552300000000002,5.947715,21,6.5,21Z" fill-rule="evenodd" fill="#000000" fill-opacity="1"/></g></g><g mask="url(#master_svg_0)"><g style="mix-blend-mode:passthrough"><rect x="5" y="5" width="20" height="20" rx="0" fill="#FFFFFF" fill-opacity="1"/></g></g></g></g></g></g></g></svg>