<svg xmlns="http://www.w3.org/2000/svg" xmlns:xlink="http://www.w3.org/1999/xlink" fill="none" version="1.1" width="30" height="30" viewBox="0 0 30 30"><defs><mask id="master_svg_0"><g style="mix-blend-mode:passthrough"><path d="M23,13C23,8.58172,19.418300000000002,5,15,5C10.58172,5,7,8.58172,7,13C7,15.8517,9.32483,19.5735,13.921759999999999,24.3263C14.49747,24.9218,15.44729,24.9377,16.042839999999998,24.3617C16.06071,24.3442,16.06071,24.3442,16.07819,24.3263C20.6752,19.5736,23,15.8517,23,13ZM9,13C9,9.68629,11.68629,7,15,7C18.3137,7,21,9.68629,21,13C21,15.107,19.0161,18.3432,15,22.5614C10.983830000000001,18.3431,9,15.107,9,13ZM15,15Q15.09825,15,15.19603,14.99037Q15.29381,14.98074,15.39018,14.96157Q15.48655,14.9424,15.58057,14.91388Q15.67459,14.88536,15.76537,14.84776Q15.85614,14.81016,15.94279,14.76384Q16.02945,14.71752,16.11114,14.66294Q16.19284,14.60835,16.26879,14.54602Q16.34474,14.48369,16.41421,14.41421Q16.48369,14.34474,16.54602,14.26879Q16.60835,14.19284,16.66294,14.11114Q16.71752,14.02945,16.763840000000002,13.94279Q16.81016,13.85614,16.84776,13.76537Q16.88536,13.67459,16.91388,13.58057Q16.9424,13.48655,16.961570000000002,13.39018Q16.98074,13.29381,16.99037,13.19603Q17,13.09825,17,13Q17,12.90175,16.99037,12.80397Q16.98074,12.70619,16.961570000000002,12.60982Q16.9424,12.513449999999999,16.91388,12.41943Q16.88536,12.32541,16.84776,12.23463Q16.81016,12.14386,16.763840000000002,12.057210000000001Q16.71752,11.97055,16.66294,11.888860000000001Q16.60835,11.80716,16.54602,11.73121Q16.48369,11.65526,16.41421,11.58579Q16.34474,11.51631,16.26879,11.45398Q16.19284,11.39165,16.11114,11.337060000000001Q16.02945,11.28247,15.94279,11.23616Q15.85614,11.18984,15.76537,11.152239999999999Q15.67459,11.11464,15.58057,11.086120000000001Q15.48655,11.0576,15.39018,11.03843Q15.29381,11.01926,15.19603,11.00963Q15.09825,11,15,11Q14.90175,11,14.80397,11.00963Q14.70619,11.01926,14.60982,11.03843Q14.513449999999999,11.0576,14.41943,11.086120000000001Q14.32541,11.11464,14.23463,11.152239999999999Q14.14386,11.18984,14.057210000000001,11.23616Q13.97055,11.28247,13.888860000000001,11.337060000000001Q13.80716,11.39165,13.73121,11.45398Q13.65526,11.51631,13.58579,11.58579Q13.51631,11.65526,13.45398,11.73121Q13.39165,11.80716,13.337060000000001,11.888860000000001Q13.28247,11.97055,13.23616,12.057210000000001Q13.18984,12.14386,13.152239999999999,12.23463Q13.11464,12.32541,13.086120000000001,12.41943Q13.0576,12.513449999999999,13.03843,12.60982Q13.01926,12.70619,13.00963,12.80397Q13,12.90175,13,13Q13,13.09825,13.00963,13.19603Q13.01926,13.29381,13.03843,13.39018Q13.0576,13.48655,13.086120000000001,13.58057Q13.11464,13.67459,13.152239999999999,13.76537Q13.18984,13.85614,13.23616,13.94279Q13.28247,14.02945,13.337060000000001,14.11114Q13.39165,14.19284,13.45398,14.26879Q13.51631,14.34474,13.58579,14.41421Q13.65526,14.48369,13.73121,14.54602Q13.80716,14.60835,13.888860000000001,14.66294Q13.97055,14.71752,14.057210000000001,14.76384Q14.14386,14.81016,14.23463,14.84776Q14.32541,14.88536,14.41943,14.91388Q14.513449999999999,14.9424,14.60982,14.96157Q14.70619,14.98074,14.80397,14.99037Q14.90175,15,15,15Z" fill-rule="evenodd" fill="#FFFFFF" fill-opacity="1"/></g></mask></defs><g style="mix-blend-mode:passthrough"><g><g style="mix-blend-mode:passthrough"></g><g style="mix-blend-mode:passthrough"></g><g style="mix-blend-mode:passthrough"><g><g style="mix-blend-mode:passthrough"><path d="M23,13C23,8.58172,19.418300000000002,5,15,5C10.58172,5,7,8.58172,7,13C7,15.8517,9.32483,19.5735,13.921759999999999,24.3263C14.49747,24.9218,15.44729,24.9377,16.042839999999998,24.3617C16.06071,24.3442,16.06071,24.3442,16.07819,24.3263C20.6752,19.5736,23,15.8517,23,13ZM9,13C9,9.68629,11.68629,7,15,7C18.3137,7,21,9.68629,21,13C21,15.107,19.0161,18.3432,15,22.5614C10.983830000000001,18.3431,9,15.107,9,13ZM15,15Q15.09825,15,15.19603,14.99037Q15.29381,14.98074,15.39018,14.96157Q15.48655,14.9424,15.58057,14.91388Q15.67459,14.88536,15.76537,14.84776Q15.85614,14.81016,15.94279,14.76384Q16.02945,14.71752,16.11114,14.66294Q16.19284,14.60835,16.26879,14.54602Q16.34474,14.48369,16.41421,14.41421Q16.48369,14.34474,16.54602,14.26879Q16.60835,14.19284,16.66294,14.11114Q16.71752,14.02945,16.763840000000002,13.94279Q16.81016,13.85614,16.84776,13.76537Q16.88536,13.67459,16.91388,13.58057Q16.9424,13.48655,16.961570000000002,13.39018Q16.98074,13.29381,16.99037,13.19603Q17,13.09825,17,13Q17,12.90175,16.99037,12.80397Q16.98074,12.70619,16.961570000000002,12.60982Q16.9424,12.513449999999999,16.91388,12.41943Q16.88536,12.32541,16.84776,12.23463Q16.81016,12.14386,16.763840000000002,12.057210000000001Q16.71752,11.97055,16.66294,11.888860000000001Q16.60835,11.80716,16.54602,11.73121Q16.48369,11.65526,16.41421,11.58579Q16.34474,11.51631,16.26879,11.45398Q16.19284,11.39165,16.11114,11.337060000000001Q16.02945,11.28247,15.94279,11.23616Q15.85614,11.18984,15.76537,11.152239999999999Q15.67459,11.11464,15.58057,11.086120000000001Q15.48655,11.0576,15.39018,11.03843Q15.29381,11.01926,15.19603,11.00963Q15.09825,11,15,11Q14.90175,11,14.80397,11.00963Q14.70619,11.01926,14.60982,11.03843Q14.513449999999999,11.0576,14.41943,11.086120000000001Q14.32541,11.11464,14.23463,11.152239999999999Q14.14386,11.18984,14.057210000000001,11.23616Q13.97055,11.28247,13.888860000000001,11.337060000000001Q13.80716,11.39165,13.73121,11.45398Q13.65526,11.51631,13.58579,11.58579Q13.51631,11.65526,13.45398,11.73121Q13.39165,11.80716,13.337060000000001,11.888860000000001Q13.28247,11.97055,13.23616,12.057210000000001Q13.18984,12.14386,13.152239999999999,12.23463Q13.11464,12.32541,13.086120000000001,12.41943Q13.0576,12.513449999999999,13.03843,12.60982Q13.01926,12.70619,13.00963,12.80397Q13,12.90175,13,13Q13,13.09825,13.00963,13.19603Q13.01926,13.29381,13.03843,13.39018Q13.0576,13.48655,13.086120000000001,13.58057Q13.11464,13.67459,13.152239999999999,13.76537Q13.18984,13.85614,13.23616,13.94279Q13.28247,14.02945,13.337060000000001,14.11114Q13.39165,14.19284,13.45398,14.26879Q13.51631,14.34474,13.58579,14.41421Q13.65526,14.48369,13.73121,14.54602Q13.80716,14.60835,13.888860000000001,14.66294Q13.97055,14.71752,14.057210000000001,14.76384Q14.14386,14.81016,14.23463,14.84776Q14.32541,14.88536,14.41943,14.91388Q14.513449999999999,14.9424,14.60982,14.96157Q14.70619,14.98074,14.80397,14.99037Q14.90175,15,15,15Z" fill-rule="evenodd" fill="#000000" fill-opacity="1"/></g></g><g mask="url(#master_svg_0)"><g style="mix-blend-mode:passthrough"><rect x="5" y="5" width="20" height="20" rx="0" fill="#455B71" fill-opacity="1"/></g></g></g></g></g></svg>