<svg xmlns="http://www.w3.org/2000/svg" xmlns:xlink="http://www.w3.org/1999/xlink" fill="none" version="1.1" width="30" height="30" viewBox="0 0 30 30"><defs><mask id="master_svg_0"><g style="mix-blend-mode:passthrough"><path d="M14,12L14,8C14,6.895431,13.104569999999999,6,12,6L8,6C6.895431,6,6,6.895431,6,8L6,12C6,13.104569999999999,6.895431,14,8,14L12,14C13.104569999999999,14,14,13.104569999999999,14,12ZM24,12L24,8C24,6.895431,23.1046,6,22,6L18,6C16.895400000000002,6,16,6.895431,16,8L16,12C16,13.104569999999999,16.895400000000002,14,18,14L22,14C23.1046,14,24,13.104569999999999,24,12ZM8,8L12,8L12,12L8,12L8,8ZM18,8L22,8L22,12L18,12L18,8ZM14,22L14,18C14,16.895400000000002,13.104569999999999,16,12,16L8,16C6.895431,16,6,16.895400000000002,6,18L6,22C6,23.1046,6.895431,24,8,24L12,24C13.104569999999999,24,14,23.1046,14,22ZM24,22L24,18C24,16.895400000000002,23.1046,16,22,16L18,16C16.895400000000002,16,16,16.895400000000002,16,18L16,22C16,23.1046,16.895400000000002,24,18,24L22,24C23.1046,24,24,23.1046,24,22ZM8,18L12,18L12,22L8,22L8,18ZM18,18L22,18L22,22L18,22L18,18Z" fill-rule="evenodd" fill="#FFFFFF" fill-opacity="1"/></g></mask></defs><g style="mix-blend-mode:passthrough"><g><g style="mix-blend-mode:passthrough"><g><g style="mix-blend-mode:passthrough"></g><g style="mix-blend-mode:passthrough"></g><g style="mix-blend-mode:passthrough"><g><g style="mix-blend-mode:passthrough"><g><g style="mix-blend-mode:passthrough"><path d="M14,12L14,8C14,6.895431,13.104569999999999,6,12,6L8,6C6.895431,6,6,6.895431,6,8L6,12C6,13.104569999999999,6.895431,14,8,14L12,14C13.104569999999999,14,14,13.104569999999999,14,12ZM24,12L24,8C24,6.895431,23.1046,6,22,6L18,6C16.895400000000002,6,16,6.895431,16,8L16,12C16,13.104569999999999,16.895400000000002,14,18,14L22,14C23.1046,14,24,13.104569999999999,24,12ZM8,8L12,8L12,12L8,12L8,8ZM18,8L22,8L22,12L18,12L18,8ZM14,22L14,18C14,16.895400000000002,13.104569999999999,16,12,16L8,16C6.895431,16,6,16.895400000000002,6,18L6,22C6,23.1046,6.895431,24,8,24L12,24C13.104569999999999,24,14,23.1046,14,22ZM24,22L24,18C24,16.895400000000002,23.1046,16,22,16L18,16C16.895400000000002,16,16,16.895400000000002,16,18L16,22C16,23.1046,16.895400000000002,24,18,24L22,24C23.1046,24,24,23.1046,24,22ZM8,18L12,18L12,22L8,22L8,18ZM18,18L22,18L22,22L18,22L18,18Z" fill-rule="evenodd" fill="#000000" fill-opacity="1"/></g></g><g mask="url(#master_svg_0)"><g style="mix-blend-mode:passthrough"><rect x="5" y="5" width="20" height="20" rx="0" fill="#455B71" fill-opacity="1"/></g></g></g></g></g></g></g></g></g></svg>