<svg t="1648721829274" class="icon" viewBox="0 0 1024 1024" version="1.1" xmlns="http://www.w3.org/2000/svg" p-id="5918" width="32" height="32"><path d="M663.104463 957.422675c-133.523039 0-293.494451-122.898051-398.078391-305.824267-135.5103-237.053997-132.576481-484.394269 6.684236-563.088562 30.090319-16.993023 64.709791-24.741497 102.33983-23.091928 2.790556-0.428765 5.634324-0.706081 8.543583-0.773619 0.206708 0 1.554402-0.020466 1.747807-0.020466 61.308321 0 117.344568 76.202543 130.352837 177.26017 8.489348 65.913199-4.031826 125.497249-33.477462 159.38608-15.645328 18.000979-35.307134 27.795043-57.32152 28.310789-0.019443 0-2.440585 0.642636-3.25309 1.63115-1.131777 1.37737-2.455935 6.27389-0.693802 16.087397 12.712533 31.055297 27.792996 61.877279 44.831045 91.691305 18.544355 32.42755 39.328727 63.487963 61.815881 92.329848 0.25071 0.281409 0.496304 0.539282 0.753153 0.797156 3.852748 4.317329 6.427386 4.317329 7.662517 4.317329 4.311189 0 9.56689-2.662643 12.716626-4.701069 14.71105-19.914562 39.008432-30.80254 69.03019-30.80254 40.397059 0 88.514963 19.436678 132.046409 53.329603 79.862909 62.203714 112.659873 145.82932 83.464947 198.671829-2.598174 4.708232-2.859118 5.218862-5.437849 9.80839-19.337417 29.328979-42.173518 54.82056-71.446215 71.355141-27.403117 15.488763-58.449203 23.326265-92.295056 23.326265L663.104463 957.422675 663.104463 957.422675zM616.756879 651.146107c-9.867742 0-22.89443 1.976004-28.874631 11.447726-1.338485 2.127454-2.996241 4.040013-4.89652 5.671163-2.194992 1.889023-22.196535 18.384719-47.970548 18.384719-16.257266 0-31.074739-6.376221-43.084261-18.467607-1.328251-1.12052-2.554172-2.385327-3.651157-3.783163-24.682146-31.419594-47.448662-65.294099-67.686588-100.686167-18.549471-32.457226-34.923394-66.068741-48.669466-99.894128-0.560772-1.396813-0.998747-2.838651-1.303692-4.298909-5.187139-24.848944-1.639337-45.016263 10.55745-59.901275 15.986089-19.523659 39.761586-20.2543 41.966811-20.2543 2.559289-0.068562 10.369162-0.23843 19.572778-10.824533 19.632129-22.595624 28.111245-69.826322 21.61018-120.298853C454.497355 171.887812 413.997965 114.838492 383.848295 114.838492c-1.195222 0.044002-2.372024 0.23843-3.524267 0.472767-2.057869 0.388856-4.167926 0.515746-6.269797 0.408299-28.678156-1.693572-54.910611 3.845585-77.146031 16.389272-110.843504 62.627363-105.193831 289.201681 12.323677 494.7665 94.367251 165.06236 239.873206 280.332686 353.872586 280.332686 24.883737 0 47.458895-5.607718 67.091024-16.71059 21.649066-12.241812 41.715077-33.109072 55.121412-56.0649 1.131777-1.938142 2.577708-4.332678 4.640694-8.15882 13.470803-24.986067-12.870122-86.079494-72.563666-132.560108C683.159218 667.062612 645.543506 651.146107 616.756879 651.146107L616.756879 651.146107zM696.845938 482.029408c-1.52575 0-3.090385-0.150426-4.646833-0.433882-13.917988-2.530636-23.13593-15.722076-20.572548-29.488615 1.811252-9.837042-0.338714-19.782555-6.082532-27.984355-5.733585-8.225335-14.366196-13.746072-24.302499-15.551184-13.917988-2.512217-23.13593-15.719007-20.581758-29.487591 2.550079-13.765515 15.872502-22.873963 29.815049-20.361747 23.396873 4.234441 43.722804 17.245779 57.243749 36.599569 13.505595 19.373233 18.58938 42.786479 14.296611 65.917292C719.751624 473.457172 708.978257 482.029408 696.845938 482.029408L696.845938 482.029408zM783.421736 480.198713c-1.535983 0-3.095501-0.145309-4.65195-0.428765-13.917988-2.511193-23.13593-15.71696-20.586874-29.487591 10.468422-56.440453-27.447119-110.782106-84.517929-121.135918-13.908778-2.511193-23.125697-15.722076-20.572548-29.468149 2.550079-13.765515 15.936971-22.873963 29.815049-20.361747 84.863806 15.382339 141.239791 96.18055 125.669164 180.117241C806.317189 471.65206 795.548938 480.198713 783.421736 480.198713L783.421736 480.198713zM882.58727 507.866866c-1.530866 0-3.085268-0.125867-4.646833-0.408299-13.923104-2.535753-23.125697-15.742543-20.576641-29.487591 10.468422-56.509015-1.934049-113.664759-34.919301-160.958902-32.998555-47.273676-82.632999-79.016635-139.752928-89.370447-13.922081-2.535753-23.141046-15.722076-20.585851-29.488615 2.559289-13.769608 15.925714-22.871917 29.815049-20.361747 70.599941 12.802584 131.922588 52.021817 172.682921 110.442368 40.776705 58.416458 56.096622 129.041982 43.152822 198.863187C905.486816 499.31919 894.713448 507.866866 882.58727 507.866866L882.58727 507.866866zM882.58727 507.866866" p-id="5919" fill="#455B71"></path></svg>