<svg t="1648530381407" class="icon" viewBox="0 0 1024 1024" version="1.1" xmlns="http://www.w3.org/2000/svg" p-id="11006" width="32" height="32"><path d="M984.313195 333.817164c-6.158244-16.372866-24.390454-24.615581-40.776624-18.45836-16.35854 6.158244-24.615581 24.418084-18.444034 40.776624 41.579918 110.35312 37.705688 230.264924-10.877723 337.672974-48.624343 107.43568-136.150618 189.509789-246.475085 231.11836-110.352097 41.593221-230.300739 37.732294-337.722093-10.863397-37.929792-17.161834-73.169317-39.776856-104.674805-66.661103 25.23468 0.719383 52.935524-0.577144 81.341424-5.606683 17.203789-3.057633 28.687309-19.501107 25.644002-36.703873-3.057633-17.204813-19.528736-28.659679-36.689547-25.658329-57.373594 10.172667-111.931055 2.3536-142.829724-4.269225-10.440772-4.804413-23.065276-3.859903-32.745733 3.677756-3.803622 3.001351-6.635104 6.678083-8.66534 10.736507-0.252756 0.450254-0.380669 0.92916-0.590446 1.38146-0.649798 1.422393-1.213639 2.874461-1.63524 4.367462-1.860367 5.989399-2.09982 12.441332-0.197498 18.627206 8.088196 26.07993 27.363153 104.224551 19.6413 152.058904-2.760875 17.260071 8.932422 33.506048 26.206819 36.296598 1.704825 0.268106 3.409649 0.408298 5.086845 0.408299 15.259512 0 28.701635-11.060895 31.20873-26.601815 3.719711-23.107231 2.930743-49.413311 0.197498-74.719623 34.211104 28.122445 72.083591 51.993061 112.635088 70.336811 66.419603 30.054443 137.024519 45.144086 207.826934 45.144086 60.107863 0 120.370244-10.877723 178.294376-32.71708 126.146796-47.56727 226.229012-141.407331 281.81387-264.271368 55.555182-122.793428 59.980973-259.910045 12.427006-386.072191zM109.791326 329.899956c100.319623-221.775593 362.392933-320.574585 584.140896-220.268266 36.987329 16.739209 70.71748 38.043379 101.12394 63.432578-25.23468-0.704033-52.880265 0.605796-81.257513 5.649663-17.217092 3.02898-28.715961 19.459152-25.657305 36.676244 3.05661 17.218116 19.543063 28.672982 36.676244 25.644002 61.558908-10.892049 119.961946-1.085726 149.283703 5.734596 0.46458 0.098237 0.930183 0.084934 1.381461 0.154519 1.493001 0.295735 2.987025 0.46458 4.508678 0.521885 0.435928 0.014326 0.859575 0.154519 1.296526 0.154519 0.366343 0 0.704033-0.112563 1.070376-0.127913 1.309829-0.027629 2.551097-0.183171 3.817948-0.380669 0.81762-0.12689 1.620914-0.239453 2.409881-0.436951 1.239221-0.310061 2.43751-0.71836 3.662406-1.15531 0.775665-0.310061 1.577935-0.577144 2.339273-0.915857 1.099029-0.507559 2.1121-1.140984 3.15587-1.775433 0.831946-0.507559 1.662869-1.000791 2.46514-1.605564 0.282432-0.197498 0.592493-0.338714 0.846273-0.549515 0.661054-0.549514 1.197266-1.183963 1.803061-1.762129 0.521885-0.507559 1.113355-0.873902 1.606588-1.394764 0.153496-0.197498 0.252756-0.408298 0.407275-0.577144 1.690498-1.916649 3.183499-3.944838 4.339833-6.142894 0.12689-0.225127 0.183171-0.46458 0.310061-0.71836 0.986465-1.97293 1.732454-4.058424 2.281968-6.185873 0.184195-0.732686 0.324387-1.436719 0.465604-2.170429 0.33769-1.859344 0.507559-3.719711 0.521885-5.622033 0-0.633425 0.055258-1.225918 0.014326-1.859343-0.142239-2.493792-0.521885-4.945629-1.255594-7.368813-0.027629-0.112563-0.027629-0.225127-0.055259-0.310062-8.074893-26.009322-27.391806-104.02603-19.614694-152.016948 2.819203-17.245745-8.932422-33.506048-26.16384-36.295575-17.148531-2.789527-33.520374 8.919119-36.309901 26.164864-3.762689 23.135884-2.945069 49.483919-0.196475 74.81786-33.09775-26.714378-69.478259-49.315074-109.169157-67.251549C466.478315-62.730591 166.840532 50.228884 52.105624 303.8057-3.463885 426.67076-7.861023 563.80068 39.720574 689.990454c4.776784 12.681808 16.810841 20.487572 29.631818 20.487573 3.691058 0 7.468074-0.661054 11.160155-2.057865 16.344214-6.170524 24.585906-24.41706 18.429708-40.788903-41.622896-110.325491-37.76197-230.280273 10.849071-337.731303z" p-id="11007" fill="#ffffff"></path><path d="M405.877219 877.359492a374.577415 374.577415 0 0 0 105.054451 15.019035c146.183091 0 285.125283-85.172675 347.796523-223.662566 41.875653-92.599816 45.201391-195.943303 9.370396-291.093192-4.143359-10.918655-16.273606-16.400496-27.194308-12.300116-10.905352 4.10038-16.413799 16.273606-12.314442 27.179981 31.871831 84.567902 28.927785 176.498477-8.326626 258.811017-69.012655 152.566463-242.052364 232.301299-402.564784 185.550625-11.145829-3.28276-22.895407 3.15587-26.164864 14.343655-3.268433 11.187784 3.156893 22.89643 14.343654 26.151561zM600.26203 185.182236c11.314674 3.086285 22.839125-3.578495 25.897781-14.822561 3.04433-11.271695-3.593844-22.839125-14.835863-25.897781-180.999992-49.159532-368.594156 39.396187-446.047024 210.546876-41.903282 92.640748-45.22902 196.040516-9.314115 291.147428 3.170196 8.441236 11.215414 13.653947 19.726234 13.653947 2.479466 0 5.001911-0.436951 7.452725-1.352808 10.905352-4.113683 16.400496-16.314538 12.286813-27.193285-31.89946-84.595531-28.955414-176.51178 8.285693-258.839669 68.84381-152.214446 235.697646-230.920862 396.547756-187.242147z" p-id="11008" fill="#ffffff"></path></svg>