<svg xmlns="http://www.w3.org/2000/svg" xmlns:xlink="http://www.w3.org/1999/xlink" fill="none" version="1.1" width="40" height="40" viewBox="0 0 40 40"><defs><mask id="master_svg_0"><g style="mix-blend-mode:passthrough"><path d="M28.999976942443848,31.99997268447876C29.010876942443847,31.99997268447876,29.021776942443847,31.99987268447876,29.032676942443846,31.99947268447876C29.105876942443846,32.62267268447876,29.098076942443846,33.24237268447876,29.01007694244385,33.85857268447876C28.931976942443846,34.40527268447876,29.31187694244385,34.91187268447876,29.858576942443847,34.98997268447876C30.405276942443848,35.068072684478764,30.911876942443847,34.68817268447876,30.989976942443846,34.14137268447876C31.682676942443848,29.29237268447876,28.562776942443847,24.58787268447876,21.81967694244385,19.99997268447876C28.562776942443847,15.41207268447876,31.682676942443848,10.707672684478759,30.989976942443846,5.8585786844787595C30.911876942443847,5.31184468447876,30.405276942443848,4.93194568447876,29.858576942443847,5.01005058447876C29.31187694244385,5.0881553844787595,28.931976942443846,5.594687684478759,29.01007694244385,6.14142268447876C29.098076942443846,6.7576226844787595,29.105876942443846,7.37736268447876,29.032676942443846,8.00052268447876C29.021776942443847,8.000172684478759,29.010876942443847,8.00000268447876,28.999976942443848,8.00000268447876L10.999996942443847,8.00000268447876C10.989076942443848,8.00000268447876,10.978206942443848,8.000172684478759,10.967366942443848,8.00052268447876C10.894156942443848,7.37736268447876,10.901916942443847,6.7576226844787595,10.989946942443847,6.14142268447876C11.068056942443848,5.594687684478759,10.688156942443847,5.0881553844787595,10.141416942443847,5.01005058447876C9.594686942443847,4.93194568447876,9.088154942443847,5.31184468447876,9.010049942443848,5.8585786844787595C8.275408942443848,11.00107268447876,11.828726942443847,15.98087268447876,19.44407694244385,20.83147268447876C19.456076942443847,20.83957268447876,19.468376942443847,20.84737268447876,19.480776942443846,20.85487268447876C21.67027694244385,22.24947268447876,23.478676942443848,23.63147268447876,24.91277694244385,24.99997268447876L15.130806942443847,24.99997268447876C15.761816942443847,24.39327268447876,16.464326942443847,23.77817268447876,17.239086942443848,23.15487268447876C17.669396942443846,22.80867268447876,17.737586942443848,22.17917268447876,17.391386942443848,21.74887268447876C17.045196942443848,21.31857268447876,16.415706942443848,21.25037268447876,15.985396942443849,21.596572684478758C10.655116942443847,25.88497268447876,8.270384942443847,30.07727268447876,9.016129942443847,34.17887268447876C9.114925942443847,34.72227268447876,9.635508942443847,35.08267268447876,10.178886942443848,34.98387268447876C10.722256942443847,34.88507268447876,11.082666942443847,34.364472684478756,10.983866942443848,33.821072684478764C10.875356942443847,33.22427268447876,10.855886942443847,32.61637268447876,10.926646942443847,31.99737268447876C10.950866942443849,31.999072684478758,10.975326942443848,31.99997268447876,10.999996942443847,31.99997268447876L28.999976942443848,31.99997268447876ZM13.249486942443848,13.00011268447876L26.750576942443846,13.00011268447876C27.545876942443847,11.992202684478759,28.135876942443847,10.99206268447876,28.523476942443846,10.00011268447876L11.476566942443847,10.00011268447876C11.864136942443848,10.99206268447876,12.454166942443848,11.992202684478759,13.249486942443848,13.00011268447876ZM19.999876942443848,18.81007268447876C18.042046942443847,17.52917268447876,16.406246942443847,16.25887268447876,15.087166942443847,15.00007268447876L24.91267694244385,15.00007268447876C23.593576942443846,16.25887268447876,21.95777694244385,17.52917268447876,19.999876942443848,18.81007268447876ZM26.750476942443846,27.00007268447876C27.545776942443847,28.00807268447876,28.135776942443847,29.008172684478758,28.523376942443846,30.00007268447876L11.453616942443848,30.00007268447876C11.851976942443848,29.02547268447876,12.460876942443848,28.02547268447876,13.284396942443848,27.00007268447876L26.750476942443846,27.00007268447876Z" fill-rule="evenodd" fill="#FFFFFF" fill-opacity="1"/></g></mask></defs><g style="mix-blend-mode:passthrough"><g><g style="mix-blend-mode:passthrough"><g><g style="mix-blend-mode:passthrough"></g><g style="mix-blend-mode:passthrough"></g><g style="mix-blend-mode:passthrough"><g><g style="mix-blend-mode:passthrough"></g><g style="mix-blend-mode:passthrough"><g><g style="mix-blend-mode:passthrough"><path d="M28.999976942443848,31.99997268447876C29.010876942443847,31.99997268447876,29.021776942443847,31.99987268447876,29.032676942443846,31.99947268447876C29.105876942443846,32.62267268447876,29.098076942443846,33.24237268447876,29.01007694244385,33.85857268447876C28.931976942443846,34.40527268447876,29.31187694244385,34.91187268447876,29.858576942443847,34.98997268447876C30.405276942443848,35.068072684478764,30.911876942443847,34.68817268447876,30.989976942443846,34.14137268447876C31.682676942443848,29.29237268447876,28.562776942443847,24.58787268447876,21.81967694244385,19.99997268447876C28.562776942443847,15.41207268447876,31.682676942443848,10.707672684478759,30.989976942443846,5.8585786844787595C30.911876942443847,5.31184468447876,30.405276942443848,4.93194568447876,29.858576942443847,5.01005058447876C29.31187694244385,5.0881553844787595,28.931976942443846,5.594687684478759,29.01007694244385,6.14142268447876C29.098076942443846,6.7576226844787595,29.105876942443846,7.37736268447876,29.032676942443846,8.00052268447876C29.021776942443847,8.000172684478759,29.010876942443847,8.00000268447876,28.999976942443848,8.00000268447876L10.999996942443847,8.00000268447876C10.989076942443848,8.00000268447876,10.978206942443848,8.000172684478759,10.967366942443848,8.00052268447876C10.894156942443848,7.37736268447876,10.901916942443847,6.7576226844787595,10.989946942443847,6.14142268447876C11.068056942443848,5.594687684478759,10.688156942443847,5.0881553844787595,10.141416942443847,5.01005058447876C9.594686942443847,4.93194568447876,9.088154942443847,5.31184468447876,9.010049942443848,5.8585786844787595C8.275408942443848,11.00107268447876,11.828726942443847,15.98087268447876,19.44407694244385,20.83147268447876C19.456076942443847,20.83957268447876,19.468376942443847,20.84737268447876,19.480776942443846,20.85487268447876C21.67027694244385,22.24947268447876,23.478676942443848,23.63147268447876,24.91277694244385,24.99997268447876L15.130806942443847,24.99997268447876C15.761816942443847,24.39327268447876,16.464326942443847,23.77817268447876,17.239086942443848,23.15487268447876C17.669396942443846,22.80867268447876,17.737586942443848,22.17917268447876,17.391386942443848,21.74887268447876C17.045196942443848,21.31857268447876,16.415706942443848,21.25037268447876,15.985396942443849,21.596572684478758C10.655116942443847,25.88497268447876,8.270384942443847,30.07727268447876,9.016129942443847,34.17887268447876C9.114925942443847,34.72227268447876,9.635508942443847,35.08267268447876,10.178886942443848,34.98387268447876C10.722256942443847,34.88507268447876,11.082666942443847,34.364472684478756,10.983866942443848,33.821072684478764C10.875356942443847,33.22427268447876,10.855886942443847,32.61637268447876,10.926646942443847,31.99737268447876C10.950866942443849,31.999072684478758,10.975326942443848,31.99997268447876,10.999996942443847,31.99997268447876L28.999976942443848,31.99997268447876ZM13.249486942443848,13.00011268447876L26.750576942443846,13.00011268447876C27.545876942443847,11.992202684478759,28.135876942443847,10.99206268447876,28.523476942443846,10.00011268447876L11.476566942443847,10.00011268447876C11.864136942443848,10.99206268447876,12.454166942443848,11.992202684478759,13.249486942443848,13.00011268447876ZM19.999876942443848,18.81007268447876C18.042046942443847,17.52917268447876,16.406246942443847,16.25887268447876,15.087166942443847,15.00007268447876L24.91267694244385,15.00007268447876C23.593576942443846,16.25887268447876,21.95777694244385,17.52917268447876,19.999876942443848,18.81007268447876ZM26.750476942443846,27.00007268447876C27.545776942443847,28.00807268447876,28.135776942443847,29.008172684478758,28.523376942443846,30.00007268447876L11.453616942443848,30.00007268447876C11.851976942443848,29.02547268447876,12.460876942443848,28.02547268447876,13.284396942443848,27.00007268447876L26.750476942443846,27.00007268447876Z" fill-rule="evenodd" fill="#595959" fill-opacity="1"/></g></g><g mask="url(#master_svg_0)"><g style="mix-blend-mode:passthrough"><rect x="0" y="0" width="40" height="40" rx="0" fill="#455B71" fill-opacity="1"/></g></g></g></g></g></g></g></g></g></svg>