<svg xmlns="http://www.w3.org/2000/svg" xmlns:xlink="http://www.w3.org/1999/xlink" fill="none" version="1.1" width="13" height="13" viewBox="0 0 13 13"><g style="mix-blend-mode:passthrough"><g><g style="mix-blend-mode:passthrough"><path d="M7.77443,9.15963Q7.46803,9.364,7.13499,9.52127Q6.80195,9.67853,6.44946,9.7853Q6.09697,9.89207,5.73264,9.94603Q5.36831,10,5,10Q4.87726,10,4.75466,9.99398Q4.63207,9.98795,4.50991,9.97592Q4.38776,9.96389,4.26635,9.94588Q4.14493,9.92787,4.02455,9.90392Q3.90416,9.87998,3.7851,9.85015Q3.66603,9.82033,3.54858,9.7847Q3.43112,9.74907,3.31555,9.70772Q3.19998,9.66637,3.08658,9.6194Q2.97318,9.57242,2.86222,9.51995Q2.75127,9.46747,2.64302,9.40961Q2.53477,9.35174,2.42949,9.28864Q2.32421,9.22554,2.22215,9.15735Q2.12009,9.08915,2.0215,9.01604Q1.92291,8.94292,1.82803,8.86505Q1.73315,8.78718,1.6422,8.70475Q1.55126,8.62232,1.46447,8.53553Q1.37767,8.44874,1.29524,8.35779Q1.21282,8.26685,1.13495,8.17197Q1.05708,8.07708,0.983962,7.9785Q0.910844,7.87991,0.842652,7.77785Q0.774459,7.67579,0.711357,7.57051Q0.648254,7.46523,0.590394,7.35698Q0.532533,7.24873,0.480053,7.13777Q0.427574,7.02682,0.380602,6.91342Q0.333631,6.80002,0.29228,6.68445Q0.250929,6.56888,0.215298,6.45142Q0.179668,6.33396,0.149844,6.2149Q0.12002,6.09584,0.0960736,5.97545Q0.0721276,5.85507,0.0541174,5.73365Q0.0361073,5.61224,0.0240764,5.49009Q0.0120454,5.36793,0.00602272,5.24534Q0,5.12274,0,5Q0,4.87726,0.00602272,4.75466Q0.0120454,4.63207,0.0240764,4.50991Q0.0361073,4.38776,0.0541174,4.26635Q0.0721276,4.14493,0.0960736,4.02455Q0.12002,3.90416,0.149844,3.7851Q0.179668,3.66603,0.215298,3.54858Q0.250929,3.43112,0.29228,3.31555Q0.333631,3.19998,0.380602,3.08658Q0.427574,2.97318,0.480053,2.86222Q0.532533,2.75127,0.590394,2.64302Q0.648254,2.53477,0.711357,2.42949Q0.774459,2.32421,0.842652,2.22215Q0.910844,2.12009,0.983962,2.0215Q1.05708,1.92291,1.13495,1.82803Q1.21282,1.73315,1.29524,1.6422Q1.37767,1.55126,1.46447,1.46447Q1.55126,1.37767,1.6422,1.29524Q1.73315,1.21282,1.82803,1.13495Q1.92291,1.05708,2.0215,0.983962Q2.12009,0.910844,2.22215,0.842652Q2.32421,0.774459,2.42949,0.711357Q2.53477,0.648254,2.64302,0.590394Q2.75127,0.532533,2.86222,0.480053Q2.97318,0.427574,3.08658,0.380602Q3.19998,0.333631,3.31555,0.29228Q3.43112,0.250929,3.54858,0.215298Q3.66603,0.179668,3.7851,0.149844Q3.90416,0.12002,4.02455,0.0960736Q4.14493,0.0721276,4.26635,0.0541174Q4.38776,0.0361073,4.50991,0.0240764Q4.63207,0.0120454,4.75466,0.00602272Q4.87726,0,5,0Q5.12274,0,5.24534,0.00602272Q5.36793,0.0120454,5.49009,0.0240764Q5.61224,0.0361073,5.73365,0.0541174Q5.85507,0.0721276,5.97545,0.0960736Q6.09584,0.12002,6.2149,0.149844Q6.33396,0.179668,6.45142,0.215298Q6.56888,0.250929,6.68445,0.29228Q6.80002,0.333631,6.91342,0.380602Q7.02682,0.427574,7.13777,0.480053Q7.24873,0.532533,7.35698,0.590394Q7.46523,0.648254,7.57051,0.711357Q7.67579,0.774459,7.77785,0.842652Q7.87991,0.910844,7.9785,0.983962Q8.07708,1.05708,8.17197,1.13495Q8.26685,1.21282,8.35779,1.29524Q8.44874,1.37767,8.53553,1.46447Q8.62232,1.55126,8.70475,1.6422Q8.78718,1.73315,8.86505,1.82803Q8.94292,1.92291,9.01604,2.0215Q9.08915,2.12009,9.15735,2.22215Q9.22554,2.32421,9.28864,2.42949Q9.35174,2.53477,9.40961,2.64302Q9.46747,2.75127,9.51995,2.86222Q9.57242,2.97318,9.6194,3.08658Q9.66637,3.19998,9.70772,3.31555Q9.74907,3.43112,9.7847,3.54858Q9.82033,3.66603,9.85015,3.7851Q9.87998,3.90416,9.90392,4.02455Q9.92787,4.14493,9.94588,4.26635Q9.96389,4.38776,9.97592,4.50991Q9.98795,4.63207,9.99398,4.75466Q10,4.87726,10,5Q10,5.36831,9.94603,5.73264Q9.89207,6.09697,9.7853,6.44946Q9.67853,6.80195,9.52127,7.13499Q9.364,7.46803,9.15963,7.77443L13,11.6225L11.6225,13L7.77443,9.15963ZM8,5Q8,5.14738,7.98555,5.29405Q7.97111,5.44072,7.94235,5.58527Q7.9136,5.72982,7.87082,5.87085Q7.82804,6.01189,7.77164,6.14805Q7.71524,6.28421,7.64576,6.41419Q7.57629,6.54417,7.49441,6.66671Q7.41253,6.78925,7.31903,6.90318Q7.22553,7.01711,7.12132,7.12132Q7.01711,7.22553,6.90318,7.31903Q6.78925,7.41253,6.66671,7.49441Q6.54417,7.57629,6.41419,7.64576Q6.28421,7.71524,6.14805,7.77164Q6.01189,7.82804,5.87085,7.87082Q5.72982,7.9136,5.58527,7.94236Q5.44072,7.97111,5.29405,7.98555Q5.14738,8,5,8Q4.85262,8,4.70595,7.98555Q4.55928,7.97111,4.41473,7.94235Q4.27018,7.9136,4.12915,7.87082Q3.98811,7.82804,3.85195,7.77164Q3.71579,7.71524,3.58581,7.64576Q3.45583,7.57629,3.33329,7.49441Q3.21075,7.41253,3.09682,7.31903Q2.98289,7.22553,2.87868,7.12132Q2.77447,7.01711,2.68097,6.90318Q2.58747,6.78925,2.50559,6.66671Q2.42371,6.54417,2.35424,6.41419Q2.28476,6.28421,2.22836,6.14805Q2.17196,6.01189,2.12918,5.87085Q2.0864,5.72982,2.05764,5.58527Q2.02889,5.44072,2.01445,5.29405Q2,5.14738,2,5Q2,4.85262,2.01445,4.70595Q2.02889,4.55928,2.05764,4.41473Q2.0864,4.27018,2.12918,4.12915Q2.17196,3.98811,2.22836,3.85195Q2.28476,3.71579,2.35424,3.58581Q2.42371,3.45583,2.50559,3.33329Q2.58747,3.21075,2.68097,3.09682Q2.77447,2.98289,2.87868,2.87868Q2.98289,2.77447,3.09682,2.68097Q3.21075,2.58747,3.33329,2.50559Q3.45583,2.42371,3.58581,2.35424Q3.71579,2.28476,3.85195,2.22836Q3.98811,2.17196,4.12915,2.12918Q4.27018,2.0864,4.41473,2.05764Q4.55928,2.02889,4.70595,2.01445Q4.85262,2,5,2Q5.14738,2,5.29405,2.01445Q5.44072,2.02889,5.58527,2.05764Q5.72982,2.0864,5.87085,2.12918Q6.01189,2.17196,6.14805,2.22836Q6.28421,2.28476,6.41419,2.35424Q6.54417,2.42371,6.66671,2.50559Q6.78925,2.58747,6.90318,2.68097Q7.01711,2.77447,7.12132,2.87868Q7.22553,2.98289,7.31903,3.09682Q7.41253,3.21075,7.49441,3.33329Q7.57629,3.45583,7.64576,3.58581Q7.71524,3.71579,7.77164,3.85195Q7.82804,3.98811,7.87082,4.12915Q7.9136,4.27018,7.94236,4.41473Q7.97111,4.55928,7.98555,4.70595Q8,4.85262,8,5Z" fill-rule="evenodd" fill="#CCCCCC" fill-opacity="1"/></g></g></g></svg>