<svg t="1648458304681" class="icon" viewBox="0 0 1024 1024" version="1.1" xmlns="http://www.w3.org/2000/svg" p-id="8267" width="24" height="24"><path d="M508.8 141.21c119.85 0 217.36 97.51 217.36 217.36S628.65 575.93 508.8 575.93s-217.36-97.51-217.36-217.36 97.51-217.36 217.36-217.36m0-76.71c-162.41 0-294.07 131.66-294.07 294.07S346.39 652.64 508.8 652.64s294.07-131.66 294.07-294.07S671.21 64.5 508.8 64.5z" p-id="8268" fill="#222222" data-spm-anchor-id="a313x.7781069.0.i2" class="selected"></path><path d="M106.1 959.5c-2.21 0-4.46-0.19-6.71-0.59-20.86-3.68-34.79-23.58-31.11-44.44 38.81-219.89 255.93-338.54 440.52-338.54 21.18 0 38.36 17.17 38.36 38.36s-17.17 38.36-38.36 38.36c-122.34 0-329.6 74.7-364.97 275.17-3.28 18.59-19.47 31.68-37.73 31.68z" p-id="8269" fill="#222222"></path><path d="M917.9 959.5c-18.27 0-34.45-13.09-37.73-31.7-35.38-200.46-242.64-275.16-364.97-275.16-21.18 0-38.36-17.17-38.36-38.36s17.17-38.36 38.36-38.36c184.59 0 401.72 118.65 440.52 338.54 3.68 20.86-10.25 40.76-31.11 44.44-2.25 0.41-4.5 0.6-6.71 0.6z" p-id="8270" fill="#222222"></path></svg>