<svg xmlns="http://www.w3.org/2000/svg" xmlns:xlink="http://www.w3.org/1999/xlink" fill="none" version="1.1" width="30" height="30" viewBox="0 0 30 30"><defs><mask id="master_svg_0"><g style="mix-blend-mode:passthrough"><path d="M23.1045,9.969787C23.6439,10.53063,23.82,11.80424,23.82,11.80424C23.82,11.80424,24,13.30022,24,14.79562L24,16.19803C24,17.69401,23.82,19.1894,23.82,19.1894C23.82,19.1894,23.6439,20.463,23.1045,21.023899999999998C22.4199,21.7603,21.6527,21.7638,21.301099999999998,21.8071C18.7823,21.9942,15,22,15,22C15,22,10.32,21.9561,8.879999999999999,21.814C8.4795,21.7372,7.58006,21.7603,6.894938,21.023899999999998C6.3555,20.463,6.18,19.1894,6.18,19.1894C6.18,19.1894,6,17.69401,6,16.19803L6,14.79562C6,13.30022,6.18,11.80424,6.18,11.80424C6.18,11.80424,6.3555,10.53063,6.894938,9.969787C7.58006,9.23335,8.34675,9.229884,8.69887,9.187142C11.217749999999999,9,14.99606,9,14.99606,9L15.00394,9C15.00394,9,18.7823,9,21.301099999999998,9.187142C21.6527,9.229884,22.4199,9.23335,23.1045,9.969787ZM13.14093,12.70416L13.141490000000001,17.89735L18.0043,15.309709999999999L13.14093,12.70416Z" fill-rule="evenodd" fill="#FFFFFF" fill-opacity="1"/></g></mask></defs><g style="mix-blend-mode:passthrough"><g><g style="mix-blend-mode:passthrough"><g><g style="mix-blend-mode:passthrough"><path d="M23.1045,9.969787C23.6439,10.53063,23.82,11.80424,23.82,11.80424C23.82,11.80424,24,13.30022,24,14.79562L24,16.19803C24,17.69401,23.82,19.1894,23.82,19.1894C23.82,19.1894,23.6439,20.463,23.1045,21.023899999999998C22.4199,21.7603,21.6527,21.7638,21.301099999999998,21.8071C18.7823,21.9942,15,22,15,22C15,22,10.32,21.9561,8.879999999999999,21.814C8.4795,21.7372,7.58006,21.7603,6.894938,21.023899999999998C6.3555,20.463,6.18,19.1894,6.18,19.1894C6.18,19.1894,6,17.69401,6,16.19803L6,14.79562C6,13.30022,6.18,11.80424,6.18,11.80424C6.18,11.80424,6.3555,10.53063,6.894938,9.969787C7.58006,9.23335,8.34675,9.229884,8.69887,9.187142C11.217749999999999,9,14.99606,9,14.99606,9L15.00394,9C15.00394,9,18.7823,9,21.301099999999998,9.187142C21.6527,9.229884,22.4199,9.23335,23.1045,9.969787ZM13.14093,12.70416L13.141490000000001,17.89735L18.0043,15.309709999999999L13.14093,12.70416Z" fill-rule="evenodd" fill="#000000" fill-opacity="1"/></g></g><g mask="url(#master_svg_0)"><g style="mix-blend-mode:passthrough"><rect x="0" y="0" width="30" height="30" rx="0" fill="#222222" fill-opacity="1"/></g></g></g></g></g></svg>